<?xml version="1.0" standalone="no"?>
<!DOCTYPE svg PUBLIC "-//W3C//DTD SVG 20010904//EN"
 "http://www.w3.org/TR/2001/REC-SVG-20010904/DTD/svg10.dtd">
<svg version="1.0" xmlns="http://www.w3.org/2000/svg"
 width="1944.000000pt" height="2592.000000pt" viewBox="0 0 1944.000000 2592.000000"
 preserveAspectRatio="xMidYMid meet">

<g transform="translate(0.000000,2592.000000) scale(0.100000,-0.100000)"
fill="#000000" stroke="none">
<path d="M2 23158 c1 -1730 4 -2613 9 -2363 4 220 13 668 19 995 6 327 15 728
20 890 6 162 12 426 15 585 2 160 8 318 11 353 l7 62 58 0 59 0 0 40 c0 33 3
40 20 40 17 0 20 7 20 40 l0 40 -40 0 -40 0 0 40 c0 38 2 40 30 40 28 0 30 2
30 40 0 22 5 40 10 40 6 0 10 -18 10 -40 l0 -40 40 0 c40 0 40 0 40 39 0 22 5
41 13 44 10 3 10 9 0 26 -7 11 -13 46 -13 76 l0 55 80 0 80 0 0 40 c0 24 -5
40 -12 40 -9 0 -9 3 0 12 7 7 12 25 12 40 0 27 1 28 59 28 50 0 59 3 64 20 3
11 13 20 22 20 14 0 16 9 13 63 l-3 62 43 -4 42 -3 0 81 c0 65 -3 81 -15 81
-8 0 -15 4 -15 8 0 19 27 32 66 32 l43 0 6 44 c4 24 4 58 0 75 -5 25 -2 36 17
56 37 39 58 33 58 -17 l1 -43 39 45 c22 25 40 52 40 60 0 20 43 60 64 60 12 0
16 10 16 40 0 34 3 40 21 40 24 0 58 37 59 63 0 9 6 17 13 17 8 0 20 18 27 40
11 33 18 40 40 40 22 0 29 7 40 40 7 22 19 40 27 40 7 0 13 7 13 16 0 22 41
64 63 64 13 0 17 9 17 40 0 31 4 40 18 40 21 0 62 42 62 64 0 9 7 16 15 16 18
0 65 46 65 64 0 8 54 68 119 135 l120 122 238 9 c131 5 346 12 478 15 132 4
242 8 245 10 3 1 140 6 305 9 763 16 1210 28 1214 32 2 2 -950 4 -2117 4
l-2122 0 2 -2762z m1573 2612 c3 -5 -1 -10 -9 -10 -9 0 -16 5 -16 10 0 6 4 10
9 10 6 0 13 -4 16 -10z m-379 -487 c-11 -11 -19 6 -11 24 8 17 8 17 12 0 3
-10 2 -21 -1 -24z m-396 -523 c0 -36 -2 -40 -25 -40 -29 0 -29 2 -13 47 17 47
38 43 38 -7z"/>
<path d="M15058 25913 c12 -2 32 -2 45 0 12 2 2 4 -23 4 -25 0 -35 -2 -22 -4z"/>
<path d="M15360 25910 c0 -6 86 -10 238 -10 130 0 300 -2 377 -5 77 -2 322 -9
545 -15 404 -11 845 -27 973 -37 l67 -5 0 -39 c0 -35 3 -39 24 -39 16 0 35
-13 56 -40 29 -36 36 -40 78 -41 l47 0 -42 -17 c-24 -9 -43 -19 -43 -22 0 -4
18 -13 40 -20 22 -7 40 -17 40 -22 0 -4 18 -5 40 -2 33 5 40 4 40 -10 0 -9 -7
-16 -15 -16 -8 0 -15 -4 -15 -10 0 -5 7 -10 15 -10 12 0 15 -13 15 -57 l1 -58
39 45 c22 25 40 40 40 33 0 -14 58 -73 71 -73 5 0 9 -4 9 -10 0 -5 -18 -10
-40 -10 -33 0 -40 -3 -40 -20 0 -17 7 -20 40 -20 29 0 40 4 40 15 0 20 13 19
33 -3 23 -25 21 -32 -8 -32 -21 0 -25 -5 -25 -30 0 -28 2 -30 40 -30 l40 0 0
-50 c0 -43 3 -50 20 -50 17 0 20 -7 20 -40 0 -38 2 -40 30 -40 28 0 30 2 30
40 0 33 3 40 20 40 17 0 20 -7 20 -40 0 -22 5 -40 10 -40 6 0 10 -18 10 -40 0
-57 27 -55 33 3 2 23 4 5 5 -40 2 -75 4 -83 21 -83 13 0 21 8 23 22 3 22 3 22
22 2 20 -19 20 -19 -2 -22 -18 -3 -22 -10 -22 -43 0 -29 4 -39 16 -39 26 0 64
-43 64 -72 0 -16 5 -28 10 -28 14 0 12 -38 -2 -43 -8 -2 -9 -8 -4 -13 5 -5 11
-4 13 4 3 6 13 12 24 12 12 0 19 7 19 20 0 13 -7 20 -20 20 -11 0 -20 5 -20
10 0 6 7 10 16 10 18 0 44 -23 44 -40 0 -16 -26 -40 -42 -40 -15 0 -38 -19
-38 -32 0 -14 23 -9 44 11 16 14 41 20 106 23 47 3 68 3 48 1 l-38 -4 0 -80 0
-79 40 0 c29 0 40 -4 40 -15 0 -11 11 -15 40 -15 22 0 40 -4 40 -10 0 -5 -18
-10 -40 -10 -29 0 -40 -4 -40 -15 0 -11 11 -15 40 -15 l40 0 0 -40 c0 -33 3
-40 20 -40 17 0 20 -7 20 -40 0 -30 -4 -40 -16 -40 -19 0 54 -99 73 -100 7 0
17 -9 23 -20 6 -11 17 -20 25 -20 11 0 15 -13 15 -50 0 -43 3 -50 20 -50 17 0
20 -7 20 -40 0 -36 3 -40 24 -40 16 0 35 -13 56 -40 28 -36 36 -40 76 -40 l44
0 0 -40 0 -40 -40 0 c-22 0 -40 -4 -40 -9 0 -5 18 -12 40 -16 46 -8 52 -26 13
-42 -28 -11 -28 -11 10 -12 30 -1 37 -5 37 -21 0 -11 -4 -20 -10 -20 -5 0 -10
-9 -10 -20 0 -11 5 -20 10 -20 6 0 10 9 10 20 0 13 7 20 20 20 13 0 20 -7 20
-20 0 -11 5 -20 10 -20 6 0 10 9 10 20 0 11 -4 20 -10 20 -5 0 -10 9 -10 20 0
16 7 20 30 20 28 0 30 -2 30 -40 0 -33 3 -40 20 -40 16 0 20 -7 20 -37 0 -56
9 -328 15 -478 2 -71 8 -319 11 -550 4 -231 8 -447 9 -480 16 -341 43 -1987
46 -2840 1 -178 4 -252 12 -257 9 -6 9 -8 0 -8 -16 0 -17 -56 -3 -65 8 -5 7
-12 -2 -23 -10 -12 -10 -16 0 -19 6 -3 12 -11 12 -19 0 -9 -4 -12 -10 -9 -5 3
-10 2 -10 -4 0 -5 6 -11 13 -14 9 -3 9 -7 -2 -20 -9 -12 -10 -21 -3 -29 6 -8
7 -29 2 -56 -4 -23 -3 -45 1 -48 12 -7 11 -84 -1 -84 -5 0 -10 -24 -10 -52 0
-40 3 -49 11 -38 7 11 8 -14 4 -85 -9 -154 -10 -225 -5 -225 4 0 9 -655 9
-1380 0 -441 -11 -1057 -23 -1255 -5 -68 -10 -174 -21 -405 -3 -63 -6 -142 -7
-175 0 -33 -5 -63 -11 -67 -14 -8 -67 1 -85 15 -7 5 -26 10 -42 9 -17 0 -30 3
-30 7 0 9 -55 27 -110 36 -19 3 -48 12 -65 19 -16 7 -52 18 -80 24 -115 25
-185 45 -185 53 0 5 -9 9 -20 9 -26 0 -125 37 -248 91 -34 16 -93 40 -130 54
-37 15 -89 36 -117 47 -27 12 -59 23 -70 24 -11 2 -38 6 -60 10 -22 3 -44 9
-50 13 -5 4 -37 16 -70 26 -33 10 -70 25 -82 33 -13 8 -23 11 -23 8 0 -4 -18
3 -40 14 -21 11 -45 20 -51 20 -7 0 -20 6 -28 14 -9 7 -38 21 -66 32 -27 10
-68 29 -90 43 -60 38 -98 59 -117 67 -10 3 -18 10 -18 15 0 5 -7 9 -16 9 -9 0
-27 10 -40 23 -43 40 -64 57 -74 57 -5 0 -13 8 -18 17 -5 9 -23 24 -40 32 -16
9 -53 29 -82 44 -49 27 -57 28 -126 22 -63 -6 -75 -5 -80 9 -3 9 -10 13 -16
10 -5 -3 -4 -12 3 -20 7 -9 8 -18 3 -22 -5 -5 -35 -27 -66 -51 -48 -36 -60
-41 -77 -31 -12 6 -21 21 -21 33 0 13 -6 32 -14 42 -8 11 -12 25 -9 32 7 17
-5 17 -22 -1 -10 -9 -11 -16 -3 -24 39 -39 -59 -27 -121 15 -18 13 -38 23 -43
23 -5 0 -36 13 -68 29 -35 18 -60 25 -62 19 -3 -8 -10 -7 -25 1 -12 6 -31 11
-42 11 -11 0 -40 16 -65 35 -26 19 -52 35 -59 35 -7 0 -22 7 -33 15 -22 16
-64 20 -64 5 0 -5 7 -10 16 -10 9 0 27 -9 41 -20 14 -11 32 -20 39 -20 12 0
40 -38 32 -45 -2 -2 -22 10 -45 26 -24 15 -50 26 -58 23 -14 -6 -74 30 -149
89 -20 15 -30 18 -33 10 -7 -21 -21 -15 -38 15 l-15 27 6 -30 c5 -24 4 -28 -6
-18 -7 7 -13 24 -14 39 -1 18 -8 29 -23 35 -14 5 -23 5 -23 -1 0 -6 3 -10 8
-10 7 0 32 -47 32 -60 0 -3 -20 -4 -45 -3 -36 2 -45 -1 -45 -13 0 -13 -3 -14
-13 -5 -8 6 -16 8 -20 5 -9 -9 -19 34 -13 59 3 12 3 16 0 10 -3 -7 -24 -18
-46 -24 -47 -12 -68 3 -42 32 12 14 13 17 1 22 -16 6 -87 -2 -102 -12 -13 -8
-60 -7 -103 3 -32 8 -34 7 -27 -15 l7 -24 -21 23 c-12 12 -31 22 -42 22 -11 0
-31 8 -45 17 -21 13 -25 14 -24 2 5 -30 0 -59 -10 -59 -5 0 -10 15 -10 33 0
41 -13 60 -36 55 -13 -2 -25 6 -37 26 -14 21 -21 26 -27 17 -5 -9 -10 -10 -14
-2 -5 8 -16 6 -38 -5 -25 -13 -32 -13 -39 -3 -10 16 -2 29 17 29 8 0 14 4 14
9 0 5 -14 8 -30 7 -17 -1 -49 8 -72 21 -24 14 -49 21 -60 17 -23 -7 -80 5 -73
15 5 9 -71 5 -85 -4 -6 -3 -7 1 -4 9 3 8 -3 19 -15 25 -25 14 -34 14 -26 1 7
-11 1 -12 -74 -14 l-54 -1 -3 -35 c-3 -28 -2 -31 7 -17 11 19 29 14 29 -9 0
-8 -7 -14 -15 -14 -18 0 -20 -16 -2 -23 7 -3 5 -6 -5 -6 -10 -1 -18 -5 -18
-11 0 -5 -7 -10 -15 -10 -8 0 -15 -4 -15 -10 0 -5 -7 -7 -15 -4 -8 4 -22 1
-30 -6 -8 -7 -22 -10 -30 -6 -17 6 -21 -9 -5 -19 19 -12 10 -23 -15 -20 -17 1
-29 -4 -35 -15 -10 -18 -25 -21 -46 -7 -19 11 -24 -4 -9 -27 17 -24 19 -46 5
-46 -5 0 -10 7 -10 15 0 8 -4 15 -10 15 -5 0 -10 -12 -10 -27 0 -16 -4 -34 -9
-41 -10 -16 -58 -42 -77 -42 -8 0 -17 -7 -21 -16 -5 -13 -9 -12 -28 6 l-23 21
-15 -21 c-9 -13 -17 -17 -22 -11 -3 6 -1 11 4 11 6 0 11 9 11 20 0 21 -24 27
-36 9 -5 -8 -9 -7 -14 1 -5 7 -23 13 -42 12 -29 -1 -31 1 -15 12 9 7 17 16 17
20 0 10 -42 -17 -60 -38 -15 -17 -17 -17 -32 -2 -20 20 -28 20 -28 2 0 -8 -5
-27 -10 -42 -8 -21 -14 -24 -22 -16 -22 22 -41 14 -34 -13 4 -16 1 -34 -9 -48
-8 -12 -15 -29 -15 -39 0 -9 -5 -20 -10 -23 -7 -4 -9 7 -6 31 4 39 -16 75 -30
53 -3 -6 0 -15 7 -20 11 -7 11 -9 -2 -9 -17 0 -69 60 -69 79 0 6 -5 11 -11 11
-8 0 -8 4 0 14 6 7 9 21 5 30 -7 18 -24 22 -24 5 0 -6 -6 -9 -12 -6 -7 2 -21
-8 -30 -22 -16 -23 -18 -24 -19 -6 -1 11 -1 28 0 38 4 36 -20 15 -31 -29 -7
-25 -20 -49 -28 -54 -13 -7 -15 -1 -15 32 1 48 -8 56 -28 24 -12 -17 -22 -22
-41 -19 -45 9 -76 -4 -76 -32 0 -14 -3 -24 -7 -23 -5 0 -16 -2 -26 -7 -11 -4
-23 -3 -30 4 -8 8 -6 11 10 11 22 0 50 26 39 37 -3 4 -12 1 -18 -5 -20 -20
-47 -15 -41 8 7 27 -10 26 -22 -1 -12 -25 -29 -27 -33 -5 -2 9 3 16 11 16 19
0 29 38 16 62 -8 14 -14 16 -29 8 -30 -16 -40 -12 -40 15 0 14 -4 25 -10 25
-5 0 -10 -6 -10 -14 0 -8 -12 -24 -27 -36 -20 -16 -28 -18 -35 -8 -14 22 -9
48 7 42 8 -4 15 -2 15 4 0 6 -14 15 -30 21 -17 6 -34 21 -40 35 -5 15 -14 26
-20 26 -6 0 -9 4 -6 9 10 16 -28 23 -40 7 -9 -13 -12 -13 -27 2 -16 15 -17 15
-17 -1 0 -10 -4 -15 -10 -12 -5 3 -10 17 -10 31 0 26 -17 33 -26 9 -4 -8 -13
-15 -21 -15 -12 0 -14 7 -9 33 4 20 3 27 -3 18 -9 -14 -35 -6 -26 9 6 9 -18
20 -46 20 -13 0 -18 6 -16 22 2 21 -3 25 -76 59 -15 7 -44 12 -63 12 -18 -1
-34 3 -34 8 0 5 5 9 10 9 17 0 11 20 -7 28 -11 4 -18 18 -18 32 0 20 -5 25
-22 23 -15 -2 -23 3 -23 12 0 8 -6 12 -14 9 -8 -3 -23 -1 -33 5 -16 9 -16 10
5 11 13 0 22 6 22 15 0 9 -9 15 -24 15 -16 0 -27 7 -31 21 -4 13 -12 18 -22
15 -8 -3 -19 -6 -24 -6 -5 0 -9 -7 -9 -15 0 -8 -4 -15 -9 -15 -4 0 -7 19 -6
42 3 44 -11 78 -32 78 -8 0 -13 -15 -13 -40 0 -37 -2 -40 -27 -40 -28 0 -31 9
-24 72 1 4 9 9 19 11 9 2 7 3 -5 2 -14 -1 -23 3 -23 11 0 9 11 14 31 14 24 0
30 4 27 18 -2 11 -11 16 -26 14 -15 -2 -22 2 -22 12 0 9 5 16 10 16 19 0 10
21 -12 29 -35 13 -4 21 37 10 27 -8 45 -8 62 0 37 17 19 29 -34 24 l-48 -5 35
19 c39 21 95 17 95 -7 0 -8 9 -15 20 -15 11 0 26 -4 32 -8 7 -4 21 -3 32 3 26
13 31 13 31 -4 0 -11 9 -13 35 -9 23 4 35 2 35 -6 0 -6 5 -11 11 -11 5 0 7 5
4 11 -13 19 125 -4 173 -30 21 -11 42 -8 42 7 0 8 -45 24 -144 51 -44 13 -78
29 -93 45 -25 28 -58 34 -66 14 -3 -8 -6 -6 -6 5 -1 9 -7 17 -15 17 -8 0 -22
10 -30 22 -11 15 -19 18 -28 11 -8 -6 -29 -6 -55 -1 -36 8 -47 16 -69 54 -16
27 -33 44 -44 44 -19 0 -130 100 -130 118 0 5 -11 26 -25 46 -14 21 -22 43
-18 53 5 13 2 15 -15 11 -15 -4 -22 -2 -22 8 0 8 5 14 10 14 6 0 10 11 10 25
0 14 -4 25 -9 25 -7 0 -16 54 -25 155 -2 17 -10 50 -19 75 -17 52 -20 142 -3
152 17 11 -7 10 -38 -2 -23 -8 -26 -7 -26 13 0 13 -7 32 -15 43 -8 10 -15 41
-15 67 0 52 -22 91 -34 60 -14 -35 -30 8 -32 84 -1 51 -7 80 -16 87 -14 11
-17 104 -4 125 4 6 1 18 -7 26 -9 8 -21 47 -27 87 -7 40 -16 82 -21 93 -7 18
-8 18 -8 -5 -1 -14 4 -54 9 -88 10 -61 7 -102 -9 -102 -8 0 -61 133 -61 156 0
8 -7 22 -15 30 -9 9 -15 11 -15 4 0 -21 -18 0 -23 27 -7 42 -31 97 -45 106 -6
4 -21 25 -32 45 -24 43 -62 100 -83 123 -8 9 -25 30 -37 46 -12 17 -60 70
-106 119 -81 85 -145 176 -193 272 -4 9 -15 17 -23 17 -25 0 -45 29 -53 76 -4
24 -11 53 -16 64 -6 16 -8 14 -8 -13 -1 -35 -17 -39 -39 -9 -7 9 -19 17 -27
17 -7 0 -38 25 -68 55 -30 30 -59 55 -64 55 -5 0 -22 18 -39 40 -16 22 -33 40
-39 40 -5 0 -23 18 -39 40 -30 41 -46 48 -27 12 13 -24 14 -52 4 -52 -10 0
-33 49 -33 69 0 9 -8 25 -17 36 l-16 20 8 -20 c9 -23 9 -55 0 -64 -6 -6 -18 7
-41 46 -9 15 -13 16 -27 4 -14 -11 -21 -10 -47 12 -16 14 -59 61 -94 104 -108
130 -120 143 -133 143 -7 0 -45 32 -84 70 -39 39 -78 70 -87 70 -14 -1 -14 -3
3 -12 26 -15 235 -226 258 -261 22 -34 8 -35 -23 -2 -32 34 -96 70 -147 84
-48 13 -54 20 -55 61 -1 17 -6 30 -13 30 -7 0 -10 -9 -8 -24 4 -20 0 -24 -25
-28 -21 -3 -33 1 -41 14 -6 10 -14 17 -19 16 -30 -6 -142 54 -142 77 0 7 -7
18 -15 25 -8 7 -15 20 -15 30 0 25 -40 72 -56 66 -8 -3 -14 1 -14 9 0 8 -9 15
-20 15 -31 0 -24 -19 13 -35 34 -14 75 -64 42 -51 -9 3 -25 6 -34 6 -10 0 -23
11 -29 25 -7 16 -17 23 -27 19 -9 -4 -15 0 -15 9 0 9 -17 34 -37 57 -21 23
-38 47 -38 53 0 18 -38 77 -49 77 -5 0 -2 -8 7 -18 10 -10 17 -26 17 -34 0 -9
7 -29 15 -44 33 -63 4 -61 -65 3 -19 18 -45 33 -58 33 -25 0 -97 34 -107 50
-3 5 -15 10 -26 10 -11 0 -18 4 -14 9 3 5 1 12 -5 16 -5 3 -10 2 -10 -4 0 -5
-52 17 -115 50 -83 43 -125 59 -152 58 l-38 -1 34 -14 c41 -18 34 -30 -9 -16
-17 6 -44 9 -59 6 -16 -3 -38 -1 -49 5 -26 14 -39 -3 -20 -27 12 -15 11 -15
-14 1 -15 9 -34 17 -42 17 -7 0 -27 7 -42 15 -37 19 -68 19 -34 0 23 -12 24
-14 6 -21 -10 -4 -42 -1 -70 6 -51 12 -148 58 -154 73 -2 4 -9 7 -15 7 -6 0
-18 6 -26 14 -19 16 -106 45 -141 47 -29 2 -253 -11 -290 -16 -14 -2 -39 -4
-57 -4 -17 -1 -38 -7 -45 -14 -7 -8 -20 -17 -28 -20 -8 -4 2 -4 23 -1 24 3 37
2 33 -5 -3 -5 -40 -12 -81 -16 -41 -4 -75 -11 -75 -15 0 -4 -44 -10 -97 -13
-114 -7 -205 -34 -283 -83 -30 -19 -72 -42 -92 -52 -21 -9 -39 -26 -42 -39 -4
-13 -24 -30 -51 -43 -25 -12 -45 -26 -45 -31 0 -5 -7 -9 -15 -9 -8 0 -15 -9
-15 -20 0 -11 -7 -20 -16 -20 -8 0 -12 -5 -8 -11 4 -7 17 -1 34 16 21 20 34
25 47 20 10 -5 21 -7 26 -7 26 6 -23 -101 -57 -124 -15 -9 -24 -19 -22 -22 3
-3 13 1 21 8 24 20 55 -29 36 -58 -15 -24 -87 -34 -127 -17 -45 18 -44 18 -44
0 0 -8 7 -15 15 -15 8 0 15 -8 15 -17 0 -14 -2 -15 -9 -4 -7 11 -10 11 -17 -1
-16 -26 -146 -70 -261 -88 -77 -12 -225 -80 -273 -124 -14 -13 -32 -27 -41
-32 -22 -12 -81 -88 -115 -146 -14 -25 -35 -49 -46 -51 -17 -5 -17 -8 -6 -26
16 -26 6 -36 -22 -21 -16 9 -33 9 -64 1 -23 -5 -52 -8 -64 -4 -13 3 -22 1 -22
-6 0 -6 14 -11 30 -11 l30 0 -15 -37 c-9 -20 -14 -42 -11 -49 5 -13 -36 -55
-71 -73 -13 -6 -23 -20 -23 -30 0 -10 -22 -37 -49 -61 -31 -27 -54 -58 -62
-83 -8 -25 -24 -46 -41 -56 -15 -9 -28 -21 -28 -28 0 -16 -39 -43 -55 -37 -16
6 -39 -22 -32 -40 8 -21 -18 -124 -37 -145 -9 -10 -16 -23 -16 -31 0 -7 -7
-18 -15 -24 -8 -6 -19 -35 -25 -64 -5 -30 -19 -74 -30 -99 -11 -25 -20 -53
-20 -63 0 -10 -7 -20 -15 -24 -8 -3 -15 -11 -15 -17 0 -7 -7 -21 -17 -31 -19
-22 -10 -36 12 -18 20 16 20 2 0 -20 -9 -10 -18 -46 -22 -85 -4 -46 -12 -74
-25 -87 -10 -10 -18 -32 -18 -51 0 -38 -17 -64 -44 -69 -11 -1 -21 -9 -24 -17
-3 -9 1 -11 16 -7 20 7 20 4 17 -56 -14 -206 -17 -233 -35 -245 -12 -9 -19
-32 -23 -85 -11 -117 -47 -193 -47 -99 0 20 -4 42 -9 49 -13 22 -22 -44 -10
-76 16 -41 18 -201 3 -231 -51 -105 -69 -138 -80 -151 -7 -9 -30 -76 -50 -150
-34 -127 -36 -140 -30 -235 3 -55 8 -136 10 -181 5 -88 29 -196 52 -231 8 -12
14 -38 14 -58 0 -30 3 -34 23 -32 19 2 22 -2 20 -28 -2 -41 16 -123 37 -165
10 -19 25 -70 34 -113 10 -45 24 -81 32 -84 8 -3 11 -9 8 -14 -7 -13 15 -51
27 -44 5 4 9 14 9 24 0 10 6 24 14 30 11 9 18 6 36 -19 12 -17 30 -30 42 -30
17 0 19 2 7 16 -13 16 -8 23 26 38 6 3 2 11 -7 19 -29 24 -78 89 -73 97 9 15
75 -13 81 -34 4 -12 6 -22 5 -24 -1 -1 5 -10 14 -18 8 -9 15 -22 15 -29 0 -8
9 -17 20 -20 11 -4 32 -17 48 -29 15 -12 50 -29 77 -36 49 -13 95 -44 95 -64
0 -6 34 -43 75 -83 45 -43 75 -80 75 -92 0 -12 4 -21 8 -21 4 0 13 -13 19 -30
11 -28 10 -30 -13 -30 -38 0 -87 -29 -115 -68 -35 -49 -56 -112 -81 -246 -34
-186 -34 -270 1 -530 18 -127 36 -253 41 -281 6 -27 17 -94 25 -147 9 -53 27
-134 41 -180 14 -46 34 -114 45 -153 29 -111 80 -196 154 -258 36 -31 45 -45
45 -71 0 -18 5 -37 10 -42 24 -24 62 -215 77 -376 3 -38 9 -68 13 -68 11 0 22
-66 22 -127 0 -44 2 -51 16 -45 15 5 15 3 4 -10 -11 -14 -11 -18 1 -25 20 -12
55 -258 47 -335 -1 -7 0 -36 1 -65 2 -29 0 -55 -4 -59 -4 -4 -3 -12 2 -18 14
-16 41 -98 35 -107 -2 -4 5 -36 16 -71 11 -34 20 -77 20 -95 0 -32 19 -115 38
-163 10 -28 6 -47 -15 -72 -25 -28 -10 -44 16 -17 l23 24 -7 -35 c-4 -26 -3
-31 4 -20 9 13 11 12 11 -3 0 -13 -6 -17 -22 -15 -14 2 -22 -2 -21 -9 2 -7 -2
-13 -7 -13 -6 0 -10 10 -10 21 0 16 -5 20 -19 16 -11 -3 -26 4 -37 17 -18 20
-19 20 -22 2 -2 -10 0 -21 6 -25 14 -9 25 -51 13 -51 -6 0 -11 5 -11 11 0 5
-4 8 -9 5 -5 -3 -12 1 -15 10 -10 25 -31 10 -31 -22 0 -21 -7 -32 -28 -42 -24
-12 -26 -15 -12 -28 13 -13 13 -18 -1 -40 -14 -21 -38 -30 -66 -25 -5 0 -8 -3
-8 -7 0 -5 -12 -14 -26 -20 -28 -13 -48 -1 -57 34 -2 10 -3 1 -1 -21 3 -27 1
-35 -5 -26 -5 8 -16 11 -25 8 -19 -7 -22 9 -3 17 6 4 2 4 -10 2 -12 -2 -21 0
-20 4 1 4 -1 8 -5 9 -30 4 -35 -1 -33 -31 3 -38 -3 -58 -17 -58 -5 0 -8 12 -6
27 5 41 -17 38 -30 -4 -9 -31 -20 -42 -59 -60 -26 -12 -52 -18 -56 -14 -14 14
-47 0 -47 -19 0 -11 -11 -21 -27 -26 -44 -12 -73 -14 -73 -3 0 5 5 9 12 9 6 0
9 2 7 4 -2 3 -20 1 -39 -4 -23 -5 -27 -8 -13 -9 27 -1 40 -20 22 -32 -23 -14
-49 -10 -50 9 -1 11 -4 8 -8 -8 -6 -23 -12 -25 -81 -28 l-74 -3 28 -18 c20
-14 24 -21 15 -27 -7 -4 -14 -3 -17 4 -2 7 -8 12 -14 12 -6 0 -8 -7 -4 -15 3
-10 -1 -15 -12 -15 -10 0 -22 -4 -28 -9 -5 -5 -20 -12 -33 -16 -22 -7 -23 -5
-19 24 4 28 2 31 -21 31 -18 0 -22 -3 -12 -9 9 -6 10 -11 2 -15 -6 -4 -11 -4
-11 0 0 3 -11 -1 -24 -9 -13 -9 -32 -14 -42 -13 -11 2 -13 1 -6 -1 7 -3 10 -9
7 -14 -8 -12 -45 -12 -45 1 0 6 -4 10 -9 10 -5 0 -4 -11 2 -24 8 -16 16 -21
21 -15 6 5 20 9 33 9 13 0 23 6 23 14 0 8 4 17 8 20 4 2 8 -8 7 -23 0 -15 -4
-28 -10 -28 -39 0 -55 -4 -49 -14 4 -7 0 -10 -11 -7 -10 1 -23 12 -29 23 -23
41 -35 48 -51 31 -8 -8 -15 -21 -15 -28 1 -9 5 -7 14 5 17 22 26 22 26 -2 0
-11 5 -21 12 -23 6 -2 8 -10 4 -17 -6 -9 -11 -9 -22 0 -13 10 -18 6 -15 -13 2
-17 -18 -7 -24 11 -7 23 -60 23 -60 0 0 -8 -7 -20 -15 -27 -8 -8 -9 -11 -2 -7
6 3 12 2 12 -4 0 -14 -47 -37 -90 -45 -19 -3 -28 -3 -20 1 21 9 43 33 31 33
-5 0 -13 -5 -16 -11 -4 -5 -12 -8 -18 -6 -6 2 -19 -6 -29 -17 -17 -21 -17 -20
-18 29 0 40 -3 46 -11 32 -6 -11 -9 -29 -7 -42 4 -16 1 -22 -9 -18 -7 3 -13
11 -13 19 0 16 -16 19 -25 4 -4 -6 -10 -8 -14 -6 -4 3 -17 -3 -28 -14 -16 -14
-23 -16 -33 -7 -10 9 -14 9 -17 0 -3 -7 -11 -13 -19 -13 -8 0 -14 -4 -14 -10
0 -13 -46 -13 -71 0 -11 6 -25 7 -32 3 -6 -4 -16 -8 -22 -9 -5 0 -16 -2 -22
-2 -17 -2 -17 -29 0 -35 7 -3 5 -6 -5 -6 -10 -1 -18 4 -18 10 0 6 -6 9 -12 6
-7 -2 -12 -10 -11 -16 2 -6 -4 -11 -12 -11 -8 0 -15 -7 -15 -16 0 -8 -5 -12
-11 -9 -7 5 -4 14 8 28 17 20 17 20 -2 13 -11 -4 -33 -10 -49 -13 -28 -6 -28
-7 -8 -14 12 -5 22 -13 22 -19 0 -16 -37 -12 -54 6 -19 19 -45 15 -60 -8 -14
-24 1 -36 18 -13 7 10 18 15 25 11 15 -10 -1 -32 -30 -39 -14 -4 -23 1 -31 18
-12 28 -36 39 -52 26 -6 -5 -24 -7 -40 -5 -24 2 -27 0 -23 -17 4 -14 0 -19
-13 -19 -12 0 -17 6 -15 18 1 9 0 12 -2 6 -2 -7 -13 -14 -25 -17 -11 -3 -17
-10 -13 -16 3 -6 -1 -11 -10 -11 -9 0 -13 5 -10 10 3 5 -2 10 -12 11 -16 0
-16 1 1 8 15 6 16 10 7 16 -17 10 -33 -13 -27 -38 3 -13 0 -17 -12 -14 -9 2
-16 9 -15 15 2 7 -3 12 -11 12 -10 0 -12 -7 -8 -22 4 -17 2 -20 -12 -15 -29
11 -65 -3 -63 -24 1 -10 5 -19 10 -19 4 0 5 -5 1 -11 -4 -7 -9 -7 -13 -1 -10
16 -49 24 -57 11 -5 -9 -2 -10 9 -6 22 8 23 -25 2 -43 -12 -10 -16 -9 -21 5
-5 13 -17 16 -53 14 -26 -2 -52 1 -59 5 -7 4 -12 3 -12 -3 0 -5 5 -13 10 -16
20 -12 -1 -24 -34 -18 -30 5 -34 2 -44 -26 -11 -30 -47 -54 -66 -44 -4 3 -24
8 -43 10 -29 4 -35 1 -40 -17 -5 -19 -11 -21 -38 -17 -27 4 -36 1 -54 -21 -11
-14 -21 -21 -21 -14 0 7 -7 12 -15 12 -9 0 -15 -6 -14 -12 3 -25 -1 -36 -16
-42 -12 -4 -14 2 -11 39 3 25 0 47 -5 50 -5 4 -9 -17 -10 -47 0 -42 -2 -48 -9
-30 -12 27 -24 29 -17 2 6 -22 -18 -29 -27 -7 -3 9 -9 7 -19 -5 -8 -10 -17
-15 -20 -12 -3 3 -19 3 -36 -1 -24 -5 -31 -12 -31 -30 0 -13 -4 -26 -10 -30
-5 -3 -7 -13 -4 -23 4 -10 2 -13 -3 -7 -4 6 -18 16 -31 23 -24 13 -55 4 -77
-24 -11 -14 -55 -2 -55 16 0 5 -7 10 -15 10 -17 0 -20 -16 -5 -25 15 -9 12
-25 -5 -25 -8 0 -15 -4 -15 -9 0 -14 -57 -33 -79 -26 -11 3 -22 16 -24 28 l-4
22 -2 -22 c0 -12 6 -29 15 -37 14 -14 10 -18 -13 -15 -5 1 -7 5 -6 10 2 5 -13
9 -32 9 -31 0 -36 -3 -41 -30 -7 -34 -24 -41 -24 -10 0 22 -16 27 -23 8 -3 -9
-10 -6 -22 10 -16 22 -45 30 -45 12 0 -5 9 -10 20 -10 30 0 24 -29 -8 -42 -26
-11 -26 -12 -4 -15 12 -3 22 -11 22 -20 0 -12 -3 -13 -15 -3 -8 6 -19 9 -24 6
-5 -4 -13 -1 -16 4 -4 7 -19 8 -36 5 -25 -6 -29 -4 -29 15 0 17 -3 20 -12 12
-7 -6 -17 -10 -21 -10 -5 0 -11 -3 -14 -6 -4 -3 -2 -6 4 -6 6 0 9 -9 6 -20 -3
-11 -14 -20 -24 -20 -13 0 -19 -7 -19 -22 -1 -22 -1 -22 -15 -5 -7 11 -11 26
-8 34 4 11 2 14 -8 11 -8 -3 -16 -13 -17 -24 -2 -10 -8 -23 -14 -29 -6 -7 -7
0 -3 18 9 33 -5 35 -55 7 -19 -11 -43 -22 -53 -26 -9 -4 -17 -11 -16 -18 1 -6
1 -18 -1 -26 -1 -11 -4 -10 -9 4 -6 17 -19 20 -79 22 -40 1 -72 -2 -72 -7 0
-5 -7 -6 -15 -3 -8 4 -15 1 -15 -5 0 -6 17 -11 38 -11 l37 -1 -25 -14 c-36
-21 -92 -20 -88 2 2 10 -6 19 -24 24 -31 8 -68 1 -68 -12 0 -5 -7 -9 -15 -9
-8 0 -15 -6 -15 -14 0 -7 -11 -16 -25 -18 -18 -4 -25 -1 -25 11 0 10 -5 7 -13
-9 -12 -23 -18 -25 -80 -24 -61 1 -67 -1 -67 -20 0 -20 0 -20 -16 2 -12 17
-19 20 -34 12 -10 -5 -39 -10 -64 -10 -25 0 -46 -4 -46 -10 0 -5 -11 -10 -24
-10 -30 0 -57 -10 -52 -19 5 -7 -26 -6 -112 5 -51 6 -52 6 -52 -20 0 -34 -28
-46 -46 -20 -26 38 -35 44 -62 44 -18 0 -23 -3 -14 -9 11 -6 10 -11 -3 -25
-18 -18 -36 -17 -42 1 -2 6 4 13 14 16 12 3 9 5 -9 6 -15 0 -29 -3 -33 -8 -3
-5 -19 -9 -35 -9 -16 1 -27 5 -24 10 4 5 -4 8 -17 6 -16 -2 -24 -9 -23 -21 2
-14 -7 -17 -52 -17 -36 0 -54 -4 -54 -12 0 -7 -5 -5 -11 4 -12 21 -29 24 -29
5 0 -7 -9 -18 -20 -25 -16 -10 -20 -10 -20 2 0 7 -10 16 -23 19 -12 2 -30 8
-40 12 -11 5 -17 3 -17 -7 0 -10 -11 -13 -40 -10 -39 4 -52 16 -27 25 8 3 9 8
2 16 -8 8 -15 0 -24 -27 -13 -34 -27 -51 -43 -52 -3 0 -4 9 -1 20 6 24 -22 28
-31 5 -6 -16 -36 -21 -36 -6 0 5 10 16 22 24 20 14 21 18 8 26 -11 8 -16 7
-18 -4 -4 -18 -48 -20 -56 -2 -4 6 -4 2 -2 -9 2 -15 -4 -26 -21 -35 -22 -12
-26 -11 -34 4 -16 27 -30 20 -23 -10 7 -25 6 -26 -7 -13 -8 8 -18 23 -22 33
-10 26 -25 12 -33 -29 -3 -19 -9 -33 -12 -30 -3 3 -11 1 -18 -5 -10 -9 -15 -7
-20 5 -3 9 -10 16 -16 16 -5 0 -16 7 -24 15 -20 20 -30 19 -53 -4 -19 -19 -19
-19 -24 -1 -3 11 0 21 7 23 8 3 8 8 -1 19 -7 8 -10 18 -6 21 3 4 -2 7 -11 7
-14 0 -17 -5 -12 -23 4 -17 -1 -30 -19 -47 -27 -25 -46 -21 -25 5 11 14 10 19
-10 38 l-22 22 5 -43 c5 -41 4 -43 -12 -28 -20 18 -41 21 -41 6 0 -5 5 -10 10
-10 6 0 10 -8 10 -18 0 -9 12 -26 28 -36 15 -9 19 -15 9 -12 -10 3 -25 6 -33
6 -9 0 -13 3 -10 8 2 4 -2 16 -10 26 -13 18 -15 18 -32 3 -21 -19 -48 -22 -58
-6 -4 8 -9 7 -16 -2 -7 -10 -8 -9 -4 5 7 21 -9 46 -29 46 -8 0 -11 -8 -8 -20
3 -11 1 -20 -5 -20 -10 0 -37 29 -31 33 2 1 16 9 31 17 16 7 28 17 28 22 0 12
-28 10 -35 -2 -6 -10 -23 -8 -62 7 -8 3 -13 -3 -13 -15 0 -26 -18 -38 -33 -22
-9 10 -9 11 1 6 16 -10 15 6 -3 30 -12 16 -16 17 -24 5 -6 -10 -6 -22 1 -34 7
-14 7 -18 -2 -12 -6 4 -18 -1 -25 -11 -8 -11 -15 -14 -15 -7 0 6 5 15 10 18 6
3 10 24 10 46 0 37 14 53 23 27 3 -10 7 -10 19 -1 8 7 19 9 23 5 5 -4 5 -2 1
5 -4 7 -14 9 -22 6 -9 -3 -20 0 -24 7 -11 18 -50 2 -50 -21 0 -10 -4 -19 -10
-19 -5 0 -10 7 -10 15 0 8 -7 15 -15 15 -18 0 -19 -12 -3 -28 15 -15 6 -24
-14 -17 -16 6 -28 54 -28 109 0 24 -3 28 -22 22 -13 -3 -27 -6 -33 -7 -5 0 1
-4 15 -8 16 -4 25 -14 25 -27 1 -10 4 -25 8 -32 5 -7 3 -12 -3 -12 -6 0 -5
-13 5 -36 18 -43 18 -44 5 -44 -5 0 -10 6 -10 13 0 9 -12 14 -31 14 -24 0 -30
-4 -26 -18 3 -10 -1 -20 -9 -23 -20 -8 -25 7 -10 35 25 48 27 62 11 55 -13 -4
-14 1 -9 33 4 25 2 41 -5 46 -9 5 -9 10 -1 20 8 9 7 20 -2 40 -9 21 -9 28 1
34 9 6 10 11 2 15 -7 5 -7 12 1 26 9 14 9 22 0 32 -10 13 -12 57 -12 328 0
173 -9 542 -13 546 -3 3 -1 21 3 40 4 19 4 37 -1 40 -12 7 -11 66 1 98 6 17 6
27 -1 32 -6 3 -8 20 -5 38 3 17 1 50 -3 74 -5 25 -5 45 1 48 5 3 7 22 4 43 -5
31 -9 237 -6 296 1 11 -1 73 -4 138 -3 67 -1 117 4 117 12 0 0 73 -14 82 -6 5
-7 8 -1 8 6 0 9 99 8 282 -2 156 -3 283 -4 283 -1 0 -3 104 -5 230 -4 330 -11
515 -18 522 -3 4 -6 -3048 -6 -6780 l0 -6787 9720 0 9720 0 0 12960 0 12960
-2040 0 c-1353 0 -2040 -3 -2040 -10z m3090 -1020 c0 -5 -4 -10 -10 -10 -5 0
-10 5 -10 10 0 6 5 10 10 10 6 0 10 -4 10 -10z m50 -76 c0 -8 -4 -14 -10 -14
-5 0 -10 9 -10 21 0 11 5 17 10 14 6 -3 10 -13 10 -21z m265 -324 c3 -5 -1
-10 -9 -10 -9 0 -16 5 -16 10 0 6 4 10 9 10 6 0 13 -4 16 -10z m-10044 -4086
c27 -9 52 -20 54 -25 3 -4 -7 -4 -22 1 -15 4 -45 11 -65 15 -21 3 -40 10 -43
15 -9 15 20 12 76 -6z m-931 -253 c0 -11 -4 -23 -10 -26 -5 -3 -10 -15 -10
-25 0 -11 -9 -24 -20 -30 -22 -12 -27 -1 -8 18 18 18 -3 14 -24 -5 -35 -31
-27 -7 13 40 44 51 59 58 59 28z m127 -31 c-8 -36 -2 -38 23 -7 21 25 35 19
25 -12 -4 -14 -15 -21 -33 -21 -19 0 -23 -3 -13 -9 8 -5 10 -14 6 -21 -6 -9
-11 -8 -19 6 -16 29 -18 64 -5 80 18 21 22 17 16 -16z m480 5 c23 -4 47 -13
54 -21 9 -12 4 -14 -32 -15 -24 -1 -48 -1 -53 0 -5 1 -13 -4 -17 -11 -8 -12
-83 -14 -120 -3 -24 8 -31 43 -11 55 17 10 96 8 179 -5z m-290 -10 c3 -9 2
-19 -2 -23 -4 -4 -10 -1 -12 6 -3 8 -9 10 -16 4 -7 -5 -22 -12 -34 -14 -31 -8
-18 18 15 31 38 13 42 13 49 -4z m60 -21 c-3 -3 -12 -4 -19 -1 -8 3 -5 6 6 6
11 1 17 -2 13 -5z m-145 -56 c-27 -11 -30 -9 -25 11 4 17 8 18 24 8 18 -11 18
-12 1 -19z m-131 1 c12 -24 -3 -41 -31 -36 -8 1 -20 -4 -26 -12 -6 -8 -16 -11
-23 -7 -8 5 -1 18 21 42 38 40 43 41 59 13z m-136 -32 c-4 -22 -14 -37 -25
-40 -13 -3 -17 0 -13 9 3 9 -1 14 -12 14 -12 0 -15 -5 -10 -22 7 -22 6 -22
-10 -7 -16 16 -16 18 6 40 23 24 61 48 67 43 2 -1 0 -18 -3 -37z m265 -57 c0
-5 -19 -10 -42 -9 -37 1 -39 2 -18 9 36 12 60 12 60 0z m-395 -40 c-5 -23 -10
-29 -18 -21 -8 8 -7 18 3 36 17 32 24 25 15 -15z m-15 -84 c0 -3 -4 -8 -10
-11 -5 -3 -10 -1 -10 4 0 6 5 11 10 11 6 0 10 -2 10 -4z m-490 -254 c0 -8 -43
-32 -57 -32 -3 0 2 9 12 20 18 20 45 27 45 12z m-70 -41 c0 -14 -52 -49 -83
-56 -15 -4 -40 -18 -55 -31 -101 -87 -108 -90 -98 -43 6 33 21 49 71 76 17 8
34 22 38 29 4 8 13 14 19 14 7 0 6 -6 -2 -15 -32 -38 19 -25 54 14 19 21 56
29 56 12z m4024 -183 c-3 -4 -1 -8 4 -8 5 0 12 -9 15 -20 7 -29 -8 -25 -32 9
-27 38 -28 55 -2 39 11 -7 17 -16 15 -20z m-4449 -68 c-3 -5 -15 -10 -26 -10
-10 0 -19 5 -19 10 0 6 12 10 26 10 14 0 23 -4 19 -10z m-23 -62 c-12 -12 -35
-1 -27 12 3 5 13 6 21 3 10 -4 12 -9 6 -15z m-112 -208 c0 -5 -5 -10 -11 -10
-5 0 -7 5 -4 10 3 6 8 10 11 10 2 0 4 -4 4 -10z m-280 -204 c0 -3 -4 -8 -10
-11 -5 -3 -10 -1 -10 4 0 6 5 11 10 11 6 0 10 -2 10 -4z m5590 -384 c0 -15 -2
-15 -10 -2 -13 20 -13 33 0 25 6 -3 10 -14 10 -23z m40 -73 c11 -30 20 -58 20
-64 -1 -18 -50 89 -50 109 0 28 8 16 30 -45z m122 -192 c1 -25 7 -38 18 -42 9
-3 23 -16 30 -30 11 -20 10 -26 -4 -41 -29 -28 -43 1 -62 131 -5 30 -4 37 5
29 6 -6 12 -27 13 -47z m-5945 11 c-3 -8 -6 -5 -6 6 -1 11 2 17 5 13 3 -3 4
-12 1 -19z m-31 -155 c-10 -10 -19 5 -10 18 6 11 8 11 12 0 2 -7 1 -15 -2 -18z
m6074 -48 l0 -30 -20 30 c-27 41 -27 59 0 43 13 -8 20 -24 20 -43z m-6113
-177 c-3 -7 -5 -2 -5 12 0 14 2 19 5 13 2 -7 2 -19 0 -25z m17 -94 c4 -10 1
-14 -6 -12 -15 5 -23 28 -10 28 5 0 13 -7 16 -16z m-9 -94 c-6 -9 -9 -9 -16 1
-10 17 0 34 13 21 6 -6 7 -16 3 -22z m-215 -642 c-8 -24 -17 -47 -20 -53 -4
-5 -10 -34 -14 -63 -7 -52 -31 -128 -46 -145 -5 -5 -7 30 -5 77 2 66 8 97 27
138 14 29 30 66 37 82 9 21 15 26 23 18 8 -8 8 -23 -2 -54z m6710 -208 c0 -5
-7 -10 -15 -10 -8 0 -15 5 -15 10 0 6 7 10 15 10 8 0 15 -4 15 -10z m0 -154
c0 -3 -4 -8 -10 -11 -5 -3 -10 -1 -10 4 0 6 5 11 10 11 6 0 10 -2 10 -4z m103
-48 c2 -7 1 -21 -2 -31 -6 -17 -8 -17 -20 -3 -7 9 -21 16 -30 16 -11 0 -8 5 9
14 32 18 37 19 43 4z m87 -22 c0 -11 -19 -15 -25 -6 -3 5 1 10 9 10 9 0 16 -2
16 -4z m77 -108 c-3 -8 -6 -5 -6 6 -1 11 2 17 5 13 3 -3 4 -12 1 -19z m213
-118 c0 -5 -5 -10 -11 -10 -5 0 -7 5 -4 10 3 6 8 10 11 10 2 0 4 -4 4 -10z
m-6840 -60 c0 -5 -4 -10 -10 -10 -5 0 -10 5 -10 10 0 6 5 10 10 10 6 0 10 -4
10 -10z m9150 -51 c0 -6 -4 -7 -10 -4 -5 3 -10 11 -10 16 0 6 5 7 10 4 6 -3
10 -11 10 -16z m430 -88 c0 -6 -4 -13 -10 -16 -5 -3 -10 1 -10 9 0 9 5 16 10
16 6 0 10 -4 10 -9z m-9540 -11 c-19 -13 -30 -13 -30 0 0 6 10 10 23 10 18 0
19 -2 7 -10z m8374 -11 c-3 -5 -10 -7 -15 -3 -5 3 -7 10 -3 15 3 5 10 7 15 3
5 -3 7 -10 3 -15z m-1287 5 c-3 -3 -12 -4 -19 -1 -8 3 -5 6 6 6 11 1 17 -2 13
-5z m-7017 -34 c0 -5 -5 -10 -11 -10 -5 0 -7 5 -4 10 3 6 8 10 11 10 2 0 4 -4
4 -10z m9780 -40 c0 -5 -4 -10 -10 -10 -5 0 -10 5 -10 10 0 6 5 10 10 10 6 0
10 -4 10 -10z m40 -5 c-7 -8 -19 -15 -26 -15 -8 0 -11 6 -8 15 4 8 15 15 26
15 17 0 18 -3 8 -15z m-9830 -4 c0 -5 -7 -11 -15 -15 -8 -3 -15 -1 -15 4 0 6
-4 10 -10 10 -5 0 -10 -8 -10 -17 0 -15 -2 -16 -10 -3 -16 25 -12 30 25 30 19
0 35 -4 35 -9z m30 -1 c0 -5 -2 -10 -4 -10 -3 0 -8 5 -11 10 -3 6 -1 10 4 10
6 0 11 -4 11 -10z m7108 -7 c-10 -2 -26 -2 -35 0 -10 3 -2 5 17 5 19 0 27 -2
18 -5z m838 -33 c1 -37 -13 -39 -26 -4 -13 33 -13 34 8 34 12 0 17 -9 18 -30z
m1801 24 c-3 -3 -12 -4 -19 -1 -8 3 -5 6 6 6 11 1 17 -2 13 -5z m-1677 -54 c0
-5 -4 -10 -10 -10 -5 0 -10 5 -10 10 0 6 5 10 10 10 6 0 10 -4 10 -10z m-671
-22 c0 -16 -2 -18 -6 -8 -3 8 -11 18 -17 22 -7 5 -4 8 7 8 11 0 17 -7 16 -22z
m-7561 0 c15 -15 16 -32 2 -23 -5 3 -10 1 -10 -4 0 -6 5 -11 12 -11 6 0 8 -3
4 -7 -4 -5 -14 1 -22 11 -25 35 -14 62 14 34z m201 -25 l23 -22 -30 9 c-40 11
-54 19 -48 29 9 14 30 7 55 -16z m7345 2 c8 -33 -4 -57 -15 -29 -11 27 -11 54
0 54 5 0 12 -11 15 -25z m686 9 c0 -8 -4 -12 -10 -9 -5 3 -10 10 -10 16 0 5 5
9 10 9 6 0 10 -7 10 -16z m-980 -16 c0 -19 -2 -20 -10 -8 -13 19 -13 30 0 30
6 0 10 -10 10 -22z m3183 -28 c15 -5 27 -14 27 -19 0 -15 -55 7 -77 31 -18 20
-18 21 2 9 11 -6 32 -15 48 -21z m-10342 -42 c12 -22 1 -23 -29 -2 -14 9 -22
25 -22 42 l0 27 21 -25 c11 -14 24 -33 30 -42z m10467 11 c20 -31 8 -34 -23
-5 -24 23 -25 26 -9 26 11 0 25 -9 32 -21z m-10504 -34 c24 -19 48 -35 53 -35
6 0 16 -7 23 -15 10 -12 10 -15 -1 -15 -18 0 -129 78 -129 91 0 15 10 11 54
-26z m154 -20 c-3 -3 -9 2 -12 12 -6 14 -5 15 5 6 7 -7 10 -15 7 -18z m48 -20
c1 -8 -2 -15 -7 -15 -5 0 -9 10 -9 22 0 23 12 17 16 -7z m10460 -12 c-7 -7
-26 7 -26 19 0 6 6 6 15 -2 9 -7 13 -15 11 -17z m-4711 -818 c-50 -113 -85
-325 -85 -519 0 -74 -4 -137 -8 -140 -5 -3 -17 14 -27 37 -10 23 -34 68 -52
99 -18 31 -33 61 -33 67 0 7 22 58 49 114 66 140 119 277 127 329 8 62 11 68
33 68 19 0 19 -2 -4 -55z m-2869 -640 c-11 -8 -22 -12 -25 -9 -6 6 19 24 34
24 6 -1 1 -7 -9 -15z m-50 -121 c-9 -25 -25 -15 -22 14 5 39 5 39 17 19 6 -10
8 -25 5 -33z m18 -122 c3 -5 -4 -24 -16 -42 -18 -31 -19 -35 -4 -46 22 -16 20
-61 -3 -74 -14 -7 -21 -6 -24 3 -2 6 -4 0 -3 -15 0 -16 7 -28 14 -28 21 0 13
-29 -14 -46 -18 -13 -22 -19 -12 -25 9 -6 8 -10 -6 -15 -12 -5 -23 -2 -31 9
-15 21 -25 22 -25 3 0 -8 10 -18 23 -22 12 -3 30 -13 40 -22 11 -10 17 -11 17
-3 0 23 18 1 25 -30 5 -21 11 -29 21 -25 11 4 13 -1 8 -21 -5 -19 -2 -30 11
-39 10 -7 15 -20 12 -28 -5 -12 2 -14 34 -11 28 3 39 0 39 -10 0 -7 -10 -15
-22 -17 -22 -3 -21 -4 7 -20 20 -11 24 -17 13 -18 -27 0 -31 -19 -6 -29 20 -9
20 -10 4 -10 -16 -1 -17 -4 -8 -13 7 -7 12 -21 12 -31 0 -11 8 -26 18 -33 16
-13 16 -15 0 -28 -22 -16 -23 -36 -3 -36 21 0 28 -22 16 -53 -7 -18 -15 -25
-26 -21 -19 8 -20 -10 0 -26 22 -18 18 -48 -7 -56 -19 -6 -19 -7 -5 -16 29
-16 20 -31 -14 -24 -19 4 -38 1 -48 -6 -12 -10 -12 -8 2 8 25 30 9 37 -18 8
-21 -23 -24 -23 -61 -11 -35 13 -36 15 -19 25 18 10 16 11 -11 8 -22 -2 -37 4
-53 20 -13 13 -28 24 -33 24 -6 0 -1 16 11 35 15 26 17 35 7 35 -20 0 -35 46
-41 120 -2 40 -10 69 -19 75 -14 11 -11 65 4 65 5 0 6 10 3 21 -4 14 0 25 11
31 23 13 20 31 -4 25 -11 -3 -20 -1 -20 4 0 5 6 9 13 9 7 0 12 14 11 38 0 20
3 42 6 47 12 17 18 65 9 65 -21 0 -7 30 16 36 27 7 33 28 13 41 -17 10 -17 36
0 46 10 7 10 12 1 23 -8 10 -8 14 0 14 6 0 11 7 11 15 0 18 47 65 65 65 8 0
12 6 9 14 -5 12 6 19 38 25 4 0 9 -3 12 -7z m-24 -276 c0 -3 -4 -8 -10 -11 -5
-3 -10 -1 -10 4 0 6 5 11 10 11 6 0 10 -2 10 -4z m170 -346 c0 -5 -4 -10 -10
-10 -5 0 -10 5 -10 10 0 6 5 10 10 10 6 0 10 -4 10 -10z m6955 -70 c3 -5 2
-10 -4 -10 -5 0 -13 5 -16 10 -3 6 -2 10 4 10 5 0 13 -4 16 -10z m-25 -25 c0
-8 -2 -15 -4 -15 -2 0 -6 7 -10 15 -3 8 -1 15 4 15 6 0 10 -7 10 -15z m190
-55 c0 -5 -4 -10 -10 -10 -5 0 -10 5 -10 10 0 6 5 10 10 10 6 0 10 -4 10 -10z
m0 -30 c0 -5 -4 -10 -10 -10 -5 0 -10 5 -10 10 0 6 5 10 10 10 6 0 10 -4 10
-10z m-150 -4 c0 -3 -4 -8 -10 -11 -5 -3 -10 -1 -10 4 0 6 5 11 10 11 6 0 10
-2 10 -4z m265 -46 c16 -7 17 -9 3 -9 -9 -1 -18 -7 -21 -13 -3 -10 -7 -10 -17
-1 -7 6 -9 16 -6 22 8 13 14 13 41 1z m39 -29 c3 -5 -3 -11 -13 -14 -14 -3
-18 -1 -14 9 6 16 19 18 27 5z m-294 -17 c0 -8 -4 -12 -10 -9 -5 3 -10 10 -10
16 0 5 5 9 10 9 6 0 10 -7 10 -16z m160 -3 c5 -11 10 -28 10 -39 0 -11 6 -25
14 -32 18 -14 10 -41 -9 -33 -8 2 -17 25 -21 50 -5 37 -10 44 -25 40 -15 -4
-16 -2 -6 14 15 24 24 24 37 0z m200 -1 c0 -5 -4 -10 -10 -10 -5 0 -10 5 -10
10 0 6 5 10 10 10 6 0 10 -4 10 -10z m34 -19 c16 -18 16 -19 -18 -23 -34 -4
-36 1 -11 29 5 7 10 12 11 13 0 0 9 -8 18 -19z m62 -41 c8 0 14 -10 14 -21 0
-19 -4 -21 -31 -15 -17 3 -40 6 -49 6 -28 0 -17 31 16 45 23 9 30 9 32 -2 2
-7 10 -13 18 -13z m-490 -20 c0 -22 -3 -40 -8 -40 -4 0 -8 5 -8 10 0 6 -10 10
-22 10 l-23 1 23 18 c12 11 22 24 22 30 0 6 4 11 8 11 4 0 8 -18 8 -40z m124
10 c8 -5 11 -10 6 -10 -4 0 -1 -11 8 -25 16 -24 16 -25 -5 -25 -16 0 -20 5
-16 19 3 13 -1 21 -15 24 -11 3 -17 10 -13 16 8 13 16 14 35 1z m-30 -30 c0
-13 -11 -13 -30 0 -12 8 -11 10 8 10 12 0 22 -4 22 -10z m454 -13 c-3 -10 3
-13 24 -9 16 2 33 -1 36 -7 5 -7 -3 -11 -21 -11 -21 0 -24 -3 -13 -9 8 -6 18
-7 23 -4 4 3 19 2 33 -1 17 -5 24 -13 24 -31 0 -13 5 -27 11 -30 6 -4 9 -23 7
-44 -3 -34 -1 -36 29 -39 33 -3 53 -25 50 -52 -1 -8 3 -16 8 -17 16 -4 12 41
-5 54 -23 18 -9 22 25 7 17 -7 24 -13 18 -14 -25 0 -13 -20 12 -20 14 0 25 4
25 9 0 5 9 11 20 14 11 3 20 1 20 -5 0 -5 4 -7 9 -4 17 11 39 -5 44 -30 2 -13
1 -24 -3 -24 -4 0 -5 -12 -2 -27 4 -22 2 -25 -12 -20 -10 4 -21 7 -26 7 -4 0
-6 9 -3 20 4 15 0 20 -15 20 -12 0 -24 5 -27 10 -3 6 -17 10 -31 10 -13 0 -24
-4 -24 -10 0 -5 11 -10 25 -10 28 0 30 -7 11 -32 -15 -20 -37 -23 -53 -7 -7 7
-13 7 -17 1 -8 -14 32 -42 50 -35 8 3 14 9 14 14 0 17 45 9 58 -11 7 -11 19
-20 28 -20 11 0 14 -6 9 -21 -5 -14 -2 -25 6 -30 22 -14 32 -10 26 10 -3 14 2
20 18 23 18 4 22 1 18 -11 -4 -9 -11 -22 -16 -29 -13 -16 -3 -26 19 -18 9 3
14 12 10 21 -6 17 2 19 23 6 7 -5 10 -14 7 -20 -12 -19 4 -50 26 -53 12 -2 23
-9 26 -17 3 -10 -2 -12 -22 -7 -15 4 -26 2 -26 -4 0 -5 7 -10 15 -10 9 0 18
-12 22 -30 6 -31 23 -42 23 -15 0 8 5 15 10 15 6 0 10 -5 10 -10 0 -6 10 -8
24 -4 14 3 31 2 38 -2 7 -5 17 -9 22 -9 5 0 15 -10 24 -22 8 -13 10 -23 5 -23
-5 0 -9 -9 -10 -20 -2 -23 15 -27 23 -5 9 23 19 18 20 -10 1 -17 -3 -25 -15
-25 -13 0 -16 -8 -13 -40 3 -26 9 -40 18 -40 17 0 18 23 4 51 -14 25 7 26 26
2 19 -26 17 -43 -8 -66 -17 -15 -18 -18 -5 -14 11 4 17 1 17 -8 0 -8 5 -15 10
-15 6 0 10 7 10 15 0 19 19 19 26 0 4 -8 10 -12 15 -9 5 3 6 -8 3 -24 -3 -16
-1 -32 4 -36 19 -11 42 6 42 31 0 23 1 23 23 7 20 -16 57 -79 57 -99 0 -5 12
-26 26 -47 22 -32 25 -43 18 -75 -7 -36 -8 -36 -12 -10 -2 15 -14 39 -28 53
-22 24 -24 25 -31 8 -4 -10 -2 -19 5 -22 10 -3 42 -63 42 -78 0 -2 -9 -4 -20
-4 -33 0 -12 -27 30 -38 22 -5 42 -7 45 -4 10 11 5 23 -16 30 -18 7 -17 9 16
25 35 17 35 17 25 -2 -5 -11 -10 -31 -10 -45 0 -22 -5 -26 -44 -31 -32 -5 -46
-12 -49 -26 -3 -12 0 -19 9 -19 8 0 14 4 14 10 0 5 13 8 30 7 24 -2 30 -7 30
-24 0 -14 6 -23 15 -23 8 0 15 -4 15 -9 0 -4 10 -7 23 -6 12 1 14 0 5 -2 -10
-2 -18 -8 -18 -13 0 -5 8 -13 18 -19 16 -9 16 -11 -2 -24 -12 -9 -16 -19 -11
-27 5 -9 4 -11 -3 -6 -7 4 -9 17 -6 30 4 17 0 25 -13 30 -10 4 -19 2 -21 -3
-8 -23 -21 -9 -27 29 -4 25 -12 40 -21 40 -8 0 -14 -4 -14 -10 0 -5 5 -10 11
-10 8 0 9 -13 5 -40 -5 -33 -4 -38 9 -34 11 4 15 0 15 -17 0 -33 33 -98 50
-99 8 0 2 -7 -14 -15 -33 -18 -39 -19 -31 -5 10 16 -18 45 -45 46 -14 1 -33 4
-42 9 -11 4 -18 3 -18 -4 0 -6 5 -11 11 -11 14 0 39 -25 39 -39 0 -6 -7 -11
-16 -11 -11 0 -15 -6 -11 -20 4 -16 0 -20 -17 -20 -12 0 -27 5 -33 11 -8 8
-13 8 -17 0 -4 -6 -2 -11 3 -11 6 0 11 -6 11 -13 0 -9 15 -13 49 -13 46 0 81
-15 81 -35 0 -15 -29 -10 -48 9 -9 9 -25 16 -35 14 -18 -4 -24 -22 -7 -22 6 0
10 -7 10 -16 0 -8 -4 -12 -10 -9 -6 4 -10 -13 -10 -44 0 -51 0 -51 -21 -33
-12 9 -30 26 -40 36 -19 20 -19 19 -19 -7 0 -17 -5 -27 -15 -27 -9 0 -12 6 -9
15 9 23 -23 29 -49 8 -25 -19 -25 -43 -1 -43 8 0 14 -10 14 -25 0 -17 7 -29
23 -35 l22 -9 -22 0 c-12 -1 -28 6 -37 14 -8 8 -19 15 -25 15 -6 0 -11 6 -11
14 0 24 -40 30 -55 9 -7 -10 -11 -20 -9 -23 3 -2 9 2 14 10 5 8 12 11 16 7 4
-4 2 -13 -4 -19 -7 -7 -12 -21 -12 -32 0 -18 -1 -18 -19 -2 -11 10 -17 25 -14
37 3 10 4 19 2 20 -2 0 -24 2 -49 5 -38 5 -43 3 -28 -8 15 -12 14 -15 -4 -33
l-21 -20 5 21 c7 28 -28 47 -54 31 -13 -9 -22 -7 -37 7 -18 16 -21 17 -21 4 0
-17 -24 -31 -34 -21 -3 4 -6 15 -6 25 0 11 -7 26 -15 34 -13 14 -17 13 -37 0
-31 -22 -57 -21 -51 3 3 13 -2 20 -17 24 -12 3 -24 15 -27 26 -3 12 -10 21
-15 21 -5 0 -8 10 -6 23 2 14 -2 22 -12 22 -8 0 -18 4 -21 8 -3 5 -14 1 -23
-8 -16 -16 -18 -15 -41 9 -13 14 -29 26 -36 26 -8 0 -6 -7 4 -18 10 -10 17
-22 17 -27 0 -4 8 -14 18 -21 16 -13 16 -13 -1 -14 -10 0 -22 -11 -27 -25 -13
-34 -34 -33 -27 2 4 20 -2 32 -25 53 -17 16 -25 30 -20 34 6 3 8 15 5 26 -7
25 24 27 68 5 30 -16 49 -13 49 7 0 6 -9 8 -20 5 -11 -3 -20 -1 -20 4 0 5 -17
9 -38 9 -27 0 -41 6 -51 21 -13 21 -12 22 31 15 27 -4 37 -3 28 3 -21 13 -52
15 -72 6 -24 -10 -47 0 -56 26 -7 17 -10 18 -18 7 -20 -25 -24 -47 -8 -41 12
4 13 -2 8 -35 -4 -24 -2 -42 5 -46 7 -5 9 3 7 21 -2 15 -1 21 1 13 3 -8 14
-25 25 -37 20 -21 20 -21 -2 -28 -19 -6 -21 -12 -17 -41 5 -30 4 -33 -9 -19
-9 8 -13 19 -10 24 4 5 -1 17 -10 25 -9 9 -14 22 -11 30 3 7 1 19 -5 27 -8 11
-9 10 -4 -4 3 -10 2 -16 -2 -13 -5 3 -17 30 -27 60 -10 30 -23 53 -27 50 -5
-3 -8 -2 -7 3 2 14 -13 53 -21 53 -12 0 -42 89 -34 101 4 7 3 10 -2 7 -9 -5
-56 36 -50 43 1 2 -6 13 -17 23 -15 14 -19 15 -14 4 5 -14 2 -14 -24 -1 -16 8
-31 18 -34 24 -4 5 -15 9 -26 9 -10 0 -19 5 -19 11 0 6 -8 8 -17 5 -22 -7 -50
8 -34 18 6 4 11 2 11 -3 0 -6 4 -11 8 -11 4 0 6 17 4 38 -4 35 -4 36 14 21 13
-11 30 -15 52 -12 35 6 37 10 21 33 -8 11 -12 12 -16 3 -7 -20 -19 -15 -31 12
-13 29 -37 33 -51 8 -9 -15 -10 -14 -11 9 0 21 6 29 24 34 14 3 27 12 30 20 4
10 -2 12 -27 7 -31 -6 -32 -6 -14 14 21 24 22 33 2 33 -22 0 -18 21 5 27 11 3
20 9 20 14 0 13 -18 11 -26 -3 -5 -8 -10 -6 -15 8 -14 35 -10 47 8 28 26 -26
28 0 4 51 -12 25 -21 49 -21 55 0 5 -3 10 -7 10 -5 0 -8 14 -9 31 -2 40 -18
57 -39 39 -10 -8 -15 -9 -15 -1 0 6 4 11 8 11 14 0 1 61 -15 67 -10 4 -11 9
-2 19 10 12 15 10 34 -12 17 -20 23 -23 28 -11 3 8 -1 27 -10 43 -8 16 -15 41
-15 57 1 28 -12 37 -22 15 -2 -7 -3 10 -1 39 3 32 0 55 -7 59 -7 5 -9 -2 -6
-21 7 -33 -17 -88 -27 -63 -4 9 -2 26 4 37 14 26 -3 38 -25 17 -29 -30 -33
-19 -4 14 14 17 17 27 10 41 -7 13 -6 22 5 33 21 20 19 29 -5 21 -11 -3 -20
-3 -20 2 1 14 27 43 39 43 6 0 11 5 11 10 0 6 11 15 25 20 36 14 31 27 -15 41
-38 12 -51 31 -30 44 6 3 14 -4 19 -17 9 -20 10 -18 10 15 1 46 44 94 79 89
23 -4 32 -31 10 -28 -14 1 -18 -5 -18 -30 0 -29 35 -10 47 26 11 33 13 34 19
12 4 -15 12 -21 21 -18 8 3 30 6 49 6 31 0 35 3 29 20 -5 16 -2 20 19 20 25 0
29 -7 38 -64 4 -29 28 -32 29 -4 l0 23 10 -25 c6 -14 8 -33 5 -42 -3 -14 2
-18 20 -18 l24 0 -20 35 c-22 40 -24 45 -12 45 5 0 15 -12 23 -27 17 -33 39
-58 39 -44 0 5 6 11 13 14 6 2 4 3 -5 2 -12 -2 -18 3 -18 16 0 10 4 19 9 19 6
0 7 16 4 35 -5 32 -4 35 20 35 14 0 32 3 41 6 11 4 16 1 16 -10 0 -11 -9 -16
-32 -16 -25 0 -29 -3 -18 -10 8 -5 30 -10 48 -10 20 0 31 -4 27 -10 -3 -6 6
-15 22 -20 15 -6 37 -14 48 -19 11 -5 28 -12 38 -15 9 -3 17 -14 17 -25 0 -24
11 -32 30 -21 11 7 11 13 -3 34 -9 14 -17 33 -17 42 0 10 -3 15 -6 12 -3 -4
-24 2 -47 12 -41 18 -57 48 -34 62 16 10 17 10 11 -5z m-636 -22 c-3 -3 -9 2
-12 12 -6 14 -5 15 5 6 7 -7 10 -15 7 -18z m65 -1 c9 -10 -4 -34 -19 -34 -8 0
-14 6 -14 13 0 22 19 35 33 21z m397 -13 c0 -13 -20 -18 -47 -13 -34 6 -28 17
12 19 19 2 35 -1 35 -6z m-466 -45 c-3 -9 -16 -16 -28 -16 -20 0 -20 1 4 20
28 21 33 20 24 -4z m466 14 c0 -5 -4 -10 -10 -10 -5 0 -10 5 -10 10 0 6 5 10
10 10 6 0 10 -4 10 -10z m-559 -13 c-1 -12 -15 -9 -19 4 -3 6 1 10 8 8 6 -3
11 -8 11 -12z m964 -44 c17 -6 29 -15 28 -21 -2 -6 3 -9 10 -6 7 2 21 -4 31
-15 18 -20 18 -21 0 -28 -10 -4 -19 -2 -22 5 -2 7 -12 12 -23 12 -10 0 -19 4
-19 10 0 12 -58 42 -69 36 -4 -3 -6 6 -3 20 4 22 6 23 21 11 9 -8 30 -19 46
-24z m-845 -42 c0 -14 -15 -17 -65 -13 -62 5 -56 17 10 20 30 1 55 -2 55 -7z
m-73 -37 c-3 -3 -12 -4 -19 -1 -8 3 -5 6 6 6 11 1 17 -2 13 -5z m58 -3 c3 -5
1 -12 -4 -15 -5 -3 -11 1 -15 9 -6 16 9 21 19 6z m-35 -36 c-7 -8 -16 -12 -21
-9 -13 8 -1 24 18 24 13 0 13 -3 3 -15z m21 -63 c5 -14 7 -27 5 -30 -3 -3 -9
4 -13 14 -3 10 -12 23 -20 27 -18 11 -16 28 3 20 8 -3 20 -17 25 -31z m1066
22 c-3 -3 -12 -4 -19 -1 -8 3 -5 6 6 6 11 1 17 -2 13 -5z m-17 -50 c0 -31 -2
-35 -15 -24 -18 15 -19 26 -2 45 17 20 17 19 17 -21z m160 -28 c0 -10 -7 -12
-22 -8 -21 5 -21 6 -2 13 10 4 20 8 22 8 1 1 2 -5 2 -13z m-8 -61 c6 -11 7
-17 3 -13 -5 4 -14 3 -20 -2 -16 -13 -26 9 -18 40 6 23 10 20 35 -25z m98 1
c0 -3 -4 -8 -10 -11 -5 -3 -10 -1 -10 4 0 6 5 11 10 11 6 0 10 -2 10 -4z
m-1220 -67 c0 -11 -4 -17 -10 -14 -5 3 -10 13 -10 21 0 8 5 14 10 14 6 0 10
-9 10 -21z m-85 1 c-3 -5 -10 -10 -16 -10 -5 0 -9 5 -9 10 0 6 7 10 16 10 8 0
12 -4 9 -10z m1395 -4 c0 -2 -7 -6 -15 -10 -8 -3 -15 -1 -15 4 0 6 7 10 15 10
8 0 15 -2 15 -4z m-144 -31 c14 -11 15 -14 4 -14 -8 0 -24 6 -34 14 -15 11
-16 15 -5 15 8 0 24 -7 35 -15z m-1226 -69 c0 -3 -4 -8 -10 -11 -5 -3 -10 -1
-10 4 0 6 5 11 10 11 6 0 10 -2 10 -4z m17 -48 c-3 -8 -6 -5 -6 6 -1 11 2 17
5 13 3 -3 4 -12 1 -19z m83 -62 c0 -11 -19 -15 -25 -6 -3 5 1 10 9 10 9 0 16
-2 16 -4z m1340 0 c0 -2 -7 -6 -15 -10 -8 -3 -15 -1 -15 4 0 6 7 10 15 10 8 0
15 -2 15 -4z m-1320 -48 c0 -16 -3 -19 -11 -11 -6 6 -8 16 -5 22 11 17 16 13
16 -11z m-56 -13 c-4 -8 -10 -12 -15 -9 -11 6 -2 24 11 24 5 0 7 -7 4 -15z
m56 -105 c0 -5 -2 -10 -4 -10 -3 0 -8 5 -11 10 -3 6 -1 10 4 10 6 0 11 -4 11
-10z m1467 -22 c-3 -7 -5 -2 -5 12 0 14 2 19 5 13 2 -7 2 -19 0 -25z m80 -100
c-3 -7 -5 -2 -5 12 0 14 2 19 5 13 2 -7 2 -19 0 -25z m-17 5 c0 -5 -4 -15 -10
-23 -11 -18 -25 -7 -17 15 6 15 27 21 27 8z m-1593 -25 c-3 -8 -6 -5 -6 6 -1
11 2 17 5 13 3 -3 4 -12 1 -19z m53 -88 c-20 -13 -33 -13 -25 0 3 6 14 10 23
10 15 0 15 -2 2 -10z m1710 -70 c0 -5 -8 -10 -17 -10 -15 0 -16 2 -3 10 19 12
20 12 20 0z m-140 -15 c-6 -8 -9 -19 -6 -24 4 -5 2 -12 -3 -15 -10 -6 -23 33
-15 46 3 4 12 8 21 8 12 0 13 -3 3 -15z m30 -195 c0 -11 -7 -20 -15 -20 -8 0
-15 9 -15 20 0 11 7 20 15 20 8 0 15 -9 15 -20z m-1128 -67 c26 -23 22 -35 -7
-21 -14 6 -25 17 -25 25 0 17 10 16 32 -4z m1033 -44 c0 -7 -9 -15 -20 -16
-11 -2 -14 0 -7 3 10 5 9 9 -4 18 -15 12 -14 13 7 11 13 -1 24 -8 24 -16z
m152 15 c-3 -3 -12 -4 -19 -1 -8 3 -5 6 6 6 11 1 17 -2 13 -5z m-93 -23 c7
-11 -22 -23 -35 -15 -5 3 -7 10 -4 15 8 12 32 12 39 0z m-11372 -43 c-7 -7
-12 -8 -12 -2 0 14 12 26 19 19 2 -3 -1 -11 -7 -17z m10488 -28 c0 -5 -9 -10
-21 -10 -11 0 -17 5 -14 10 3 6 13 10 21 10 8 0 14 -4 14 -10z m860 -20 c0 -5
-4 -10 -10 -10 -5 0 -10 5 -10 10 0 6 5 10 10 10 6 0 10 -4 10 -10z m-837 -15
c1 -5 -6 -11 -15 -13 -11 -2 -18 3 -18 13 0 17 30 18 33 0z m754 -40 c18 6 16
-10 -2 -25 -22 -18 -45 5 -45 44 l1 31 17 -28 c9 -15 22 -25 29 -22z m-987 -1
c0 -8 -4 -12 -10 -9 -5 3 -10 13 -10 21 0 8 5 12 10 9 6 -3 10 -13 10 -21z
m1070 10 c0 -8 -4 -12 -10 -9 -5 3 -10 10 -10 16 0 5 5 9 10 9 6 0 10 -7 10
-16z m-11550 -8 c0 -2 -7 -7 -16 -10 -8 -3 -12 -2 -9 4 6 10 25 14 25 6z
m11370 -59 c0 -5 -7 -4 -15 3 -8 7 -15 20 -15 29 1 13 3 13 15 -3 8 -11 15
-24 15 -29z m-50 23 c0 -5 -5 -10 -11 -10 -5 0 -7 5 -4 10 3 6 8 10 11 10 2 0
4 -4 4 -10z m-560 -50 c0 -5 -5 -10 -11 -10 -5 0 -7 5 -4 10 3 6 8 10 11 10 2
0 4 -4 4 -10z m170 -10 c-8 -5 -19 -10 -25 -10 -5 0 -3 5 5 10 8 5 20 10 25
10 6 0 3 -5 -5 -10z m-11197 -17 c-7 -2 -19 -2 -25 0 -7 3 -2 5 12 5 14 0 19
-2 13 -5z m-438 -173 c-3 -5 -10 -10 -16 -10 -5 0 -9 5 -9 10 0 6 7 10 16 10
8 0 12 -4 9 -10z m-255 -88 c0 -5 -16 -13 -35 -19 -39 -12 -47 -4 -12 13 28
14 47 17 47 6z m-80 -48 c0 -2 -18 -8 -41 -14 -22 -6 -48 -13 -57 -16 -15 -5
-15 -4 1 6 9 6 15 14 13 18 -2 4 16 8 40 8 24 1 44 0 44 -2z m-167 -31 c-7 -2
-19 -2 -25 0 -7 3 -2 5 12 5 14 0 19 -2 13 -5z m17 -27 c0 -2 -11 -6 -25 -8
-14 -3 -25 -1 -25 3 0 5 11 9 25 9 14 0 25 -2 25 -4z m-610 -76 c0 -5 -4 -10
-10 -10 -5 0 -10 5 -10 10 0 6 5 10 10 10 6 0 10 -4 10 -10z m70 1 c0 -6 -4
-13 -10 -16 -5 -3 -10 1 -10 9 0 9 5 16 10 16 6 0 10 -4 10 -9z m-233 -83 c-3
-8 -6 -5 -6 6 -1 11 2 17 5 13 3 -3 4 -12 1 -19z m-107 -28 c0 -5 -4 -10 -10
-10 -5 0 -10 5 -10 10 0 6 5 10 10 10 6 0 10 -4 10 -10z m50 -12 c0 -13 -23
-5 -28 10 -2 7 2 10 12 6 9 -3 16 -11 16 -16z m-360 -152 c0 -8 -51 -13 -56
-5 -3 5 9 9 25 9 17 0 31 -2 31 -4z m-180 -26 c0 -5 -2 -10 -4 -10 -3 0 -8 5
-11 10 -3 6 -1 10 4 10 6 0 11 -4 11 -10z m-233 -116 c-3 -3 -12 -4 -19 -1 -8
3 -5 6 6 6 11 1 17 -2 13 -5z m-254 -73 c3 -12 -1 -22 -11 -26 -20 -7 -34 15
-20 32 15 18 25 16 31 -6z m-353 -91 c0 -5 -10 -10 -22 -10 -19 0 -20 2 -8 10
19 13 30 13 30 0z m-336 -75 c19 -14 18 -15 -12 -15 -30 0 -40 9 -25 23 9 10
15 8 37 -8z m96 -15 c0 -5 -4 -10 -10 -10 -5 0 -10 5 -10 10 0 6 5 10 10 10 6
0 10 -4 10 -10z m-560 -69 c0 -5 -9 -7 -20 -4 -11 3 -20 7 -20 9 0 2 9 4 20 4
11 0 20 -4 20 -9z m85 -11 c-3 -5 -10 -10 -16 -10 -5 0 -9 5 -9 10 0 6 7 10
16 10 8 0 12 -4 9 -10z m41 -37 c-10 -10 -19 5 -10 18 6 11 8 11 12 0 2 -7 1
-15 -2 -18z m-1960 -30 c-11 -11 -17 4 -9 23 7 18 8 18 11 1 2 -10 1 -21 -2
-24z m1059 7 c4 -6 -6 -10 -22 -10 -22 0 -25 2 -13 10 19 12 27 12 35 0z m215
-10 c0 -5 -7 -10 -16 -10 -8 0 -12 5 -9 10 3 6 10 10 16 10 5 0 9 -4 9 -10z
m-730 -15 c0 -8 -2 -15 -4 -15 -2 0 -6 7 -10 15 -3 8 -1 15 4 15 6 0 10 -7 10
-15z m130 -15 c-6 -11 -12 -20 -14 -20 -2 0 -2 9 1 20 3 11 9 20 15 20 5 0 4
-9 -2 -20z m-753 -22 c-3 -8 -6 -5 -6 6 -1 11 2 17 5 13 3 -3 4 -12 1 -19z
m553 -31 c-10 -10 -11 -9 -5 2 4 7 2 17 -5 21 -7 5 -9 13 -5 21 6 9 11 7 18
-9 8 -17 7 -26 -3 -35z m-418 11 c-7 -7 -12 -8 -12 -2 0 14 12 26 19 19 2 -3
-1 -11 -7 -17z m501 2 c3 -11 1 -18 -4 -14 -5 3 -9 12 -9 20 0 20 7 17 13 -6z
m-228 1 c3 -5 1 -12 -5 -16 -5 -3 -10 1 -10 9 0 18 6 21 15 7z m-155 -5 c0 -3
-4 -8 -10 -11 -5 -3 -10 -1 -10 4 0 6 5 11 10 11 6 0 10 -2 10 -4z m270 -6
c13 -8 13 -10 -2 -10 -9 0 -20 5 -23 10 -8 13 5 13 25 0z m-80 -40 c0 -5 -4
-10 -10 -10 -5 0 -10 5 -10 10 0 6 5 10 10 10 6 0 10 -4 10 -10z"/>
<path d="M9127 13909 c6 -22 23 -26 23 -5 0 8 -6 16 -14 19 -10 4 -12 0 -9
-14z"/>
<path d="M9031 13714 c0 -11 3 -14 6 -6 3 7 2 16 -1 19 -3 4 -6 -2 -5 -13z"/>
<path d="M9100 13670 c-13 -8 -12 -10 3 -10 9 0 17 5 17 10 0 12 -1 12 -20 0z"/>
<path d="M9136 13621 c-4 -7 -5 -15 -2 -18 9 -9 19 4 14 18 -4 11 -6 11 -12 0z"/>
<path d="M9240 13390 c0 -5 5 -10 11 -10 5 0 7 5 4 10 -3 6 -8 10 -11 10 -2 0
-4 -4 -4 -10z"/>
<path d="M9033 13225 c-17 -19 -16 -25 2 -25 8 0 15 9 15 20 0 23 -1 24 -17 5z"/>
<path d="M9150 13150 c0 -5 4 -10 9 -10 6 0 13 5 16 10 3 6 -1 10 -9 10 -9 0
-16 -4 -16 -10z"/>
<path d="M16711 13061 c-9 -6 -6 -10 10 -14 28 -8 34 -3 16 11 -7 6 -19 7 -26
3z"/>
<path d="M16700 12940 c0 -14 11 -22 40 -30 21 -6 42 -15 45 -20 8 -13 45 -13
45 0 0 6 -7 10 -15 10 -8 0 -15 5 -15 10 0 6 -18 10 -40 10 -33 0 -40 3 -40
20 0 11 -4 20 -10 20 -5 0 -10 -9 -10 -20z"/>
<path d="M16430 12945 c0 -2 14 -11 30 -20 29 -15 30 -15 30 5 0 16 -7 20 -30
20 -16 0 -30 -2 -30 -5z"/>
<path d="M16360 12920 c0 -5 9 -10 19 -10 11 0 21 -6 24 -12 4 -10 7 -10 18 0
11 10 10 12 -4 12 -9 0 -17 5 -17 10 0 6 -9 10 -20 10 -11 0 -20 -4 -20 -10z"/>
<path d="M16255 12890 c-3 -5 1 -10 9 -10 9 0 16 -7 16 -15 0 -8 7 -15 15 -15
20 0 19 13 -3 33 -21 20 -28 21 -37 7z"/>
<path d="M16464 12885 c4 -24 16 -30 16 -7 0 12 -4 22 -9 22 -5 0 -8 -7 -7
-15z"/>
<path d="M16730 12869 c0 -6 8 -8 18 -5 12 4 23 -3 36 -22 9 -15 15 -19 12 -9
-3 10 -6 25 -6 33 0 9 -11 14 -30 14 -16 0 -30 -5 -30 -11z"/>
<path d="M16816 12861 c-9 -14 2 -51 15 -51 5 0 12 7 16 16 7 19 -21 51 -31
35z"/>
<path d="M16755 12827 c-4 -10 -5 -21 -1 -24 10 -10 18 4 13 24 -4 17 -4 17
-12 0z"/>
<path d="M16265 12800 c3 -5 11 -10 16 -10 6 0 7 5 4 10 -3 6 -11 10 -16 10
-6 0 -7 -4 -4 -10z"/>
<path d="M16906 12795 c4 -8 12 -15 20 -15 19 0 18 16 -2 24 -22 9 -24 8 -18
-9z"/>
<path d="M17140 12781 c0 -19 17 -38 25 -29 7 7 -7 48 -16 48 -5 0 -9 -9 -9
-19z"/>
<path d="M16210 12786 c0 -2 7 -9 15 -16 12 -10 15 -10 15 4 0 9 -7 16 -15 16
-8 0 -15 -2 -15 -4z"/>
<path d="M16825 12750 c-3 -5 1 -10 10 -10 9 0 13 5 10 10 -3 6 -8 10 -10 10
-2 0 -7 -4 -10 -10z"/>
<path d="M16951 12734 c0 -11 3 -14 6 -6 3 7 2 16 -1 19 -3 4 -6 -2 -5 -13z"/>
<path d="M16210 12712 c0 -9 7 -13 18 -10 10 3 27 -1 37 -8 22 -16 45 -18 45
-4 0 6 -7 10 -15 10 -9 0 -18 6 -21 14 -8 20 -64 18 -64 -2z"/>
<path d="M16298 12723 c7 -3 16 -2 19 1 4 3 -2 6 -13 5 -11 0 -14 -3 -6 -6z"/>
<path d="M16273 12635 c-9 -25 4 -29 17 -6 7 15 7 21 0 21 -6 0 -13 -7 -17
-15z"/>
<path d="M17185 12570 c-3 -5 -1 -10 4 -10 6 0 11 5 11 10 0 6 -2 10 -4 10 -3
0 -8 -4 -11 -10z"/>
<path d="M17200 12540 c0 -5 7 -10 15 -10 8 0 15 5 15 10 0 6 -7 10 -15 10 -8
0 -15 -4 -15 -10z"/>
<path d="M16350 12510 c0 -5 5 -10 10 -10 6 0 10 5 10 10 0 6 -4 10 -10 10 -5
0 -10 -4 -10 -10z"/>
<path d="M17191 12504 c0 -11 3 -14 6 -6 3 7 2 16 -1 19 -3 4 -6 -2 -5 -13z"/>
<path d="M16316 12442 c-3 -6 -1 -14 5 -17 15 -10 25 3 12 16 -7 7 -13 7 -17
1z"/>
<path d="M17380 12419 c0 -6 7 -8 16 -5 10 4 25 -1 34 -9 19 -17 37 -5 25 15
-8 14 -75 13 -75 -1z"/>
<path d="M17400 12361 c0 -30 4 -41 16 -41 11 0 14 9 12 37 -4 52 -28 56 -28
4z"/>
<path d="M16378 12323 c6 -2 18 -2 25 0 6 3 1 5 -13 5 -14 0 -19 -2 -12 -5z"/>
<path d="M16340 12279 c0 -5 5 -7 10 -4 6 3 10 8 10 11 0 2 -4 4 -10 4 -5 0
-10 -5 -10 -11z"/>
<path d="M17426 12261 c-4 -7 -5 -15 -2 -18 9 -9 19 4 14 18 -4 11 -6 11 -12
0z"/>
<path d="M16376 12251 c-3 -5 1 -11 9 -14 9 -4 12 -1 8 9 -6 16 -10 17 -17 5z"/>
<path d="M16396 12177 c3 -10 -1 -17 -13 -20 -12 -3 -8 -5 10 -6 22 -1 28 3
25 16 -2 9 -9 18 -16 21 -7 2 -10 -2 -6 -11z"/>
<path d="M17543 12165 c-7 -8 -9 -16 -4 -20 5 -3 12 1 14 7 4 10 8 9 16 -2 5
-8 13 -11 17 -8 3 4 -1 14 -9 23 -19 18 -19 18 -34 0z"/>
<path d="M17637 12124 c-3 -3 -3 -12 0 -20 6 -16 2 -17 -21 -8 -9 3 -13 10
-10 15 3 5 0 9 -5 9 -15 0 -9 -49 10 -90 14 -29 19 -32 24 -17 4 9 1 24 -6 33
-10 13 -10 17 2 25 8 5 20 9 27 9 7 0 11 4 7 9 -3 5 -1 12 5 16 16 10 11 25
-8 25 -10 0 -21 -3 -25 -6z"/>
<path d="M17680 12076 c0 -9 30 -14 35 -6 4 6 -3 10 -14 10 -12 0 -21 -2 -21
-4z"/>
<path d="M17672 12010 c0 -14 2 -19 5 -12 2 6 2 18 0 25 -3 6 -5 1 -5 -13z"/>
<path d="M16532 11973 c-6 -11 -7 -25 -2 -33 6 -10 10 -7 16 13 8 34 -1 46
-14 20z"/>
<path d="M17376 11971 c-4 -5 -2 -12 3 -15 5 -4 12 -2 15 3 4 5 2 12 -3 15 -5
4 -12 2 -15 -3z"/>
<path d="M17665 11950 c-3 -5 -1 -10 4 -10 6 0 11 5 11 10 0 6 -2 10 -4 10 -3
0 -8 -4 -11 -10z"/>
<path d="M16385 11940 c-4 -6 -3 -16 3 -22 6 -6 12 -6 17 2 4 6 3 16 -3 22 -6
6 -12 6 -17 -2z"/>
<path d="M16445 11910 c-3 -5 1 -10 9 -10 9 0 16 5 16 10 0 6 -4 10 -9 10 -6
0 -13 -4 -16 -10z"/>
<path d="M16530 11905 c0 -8 7 -15 15 -15 9 0 12 6 9 15 -4 8 -10 15 -15 15
-5 0 -9 -7 -9 -15z"/>
<path d="M16550 11855 c7 -8 17 -15 22 -15 6 0 5 7 -2 15 -7 8 -17 15 -22 15
-6 0 -5 -7 2 -15z"/>
<path d="M16606 11764 c-10 -27 -7 -36 9 -20 8 8 15 19 15 25 0 17 -17 13 -24
-5z"/>
<path d="M17735 11750 c3 -5 8 -10 11 -10 2 0 4 5 4 10 0 6 -5 10 -11 10 -5 0
-7 -4 -4 -10z"/>
<path d="M16630 11730 c0 -6 5 -8 10 -5 14 9 13 -8 -2 -23 -18 -18 -3 -25 21
-10 12 7 20 20 19 28 -4 17 -48 27 -48 10z"/>
<path d="M17710 11690 c0 -5 5 -10 10 -10 6 0 10 5 10 10 0 6 -4 10 -10 10 -5
0 -10 -4 -10 -10z"/>
<path d="M16800 11630 c0 -5 5 -10 10 -10 6 0 10 5 10 10 0 6 -4 10 -10 10 -5
0 -10 -4 -10 -10z"/>
<path d="M17680 11574 c0 -8 5 -12 10 -9 6 4 8 11 5 16 -9 14 -15 11 -15 -7z"/>
<path d="M16963 11536 c1 -11 9 -21 17 -23 10 -3 11 -2 4 4 -6 4 -14 15 -17
23 -5 11 -6 9 -4 -4z"/>
<path d="M17570 11535 c0 -8 5 -15 10 -15 6 0 10 7 10 15 0 8 -4 15 -10 15 -5
0 -10 -7 -10 -15z"/>
<path d="M17194 11504 c3 -8 6 -20 6 -25 0 -6 5 -7 10 -4 15 10 12 32 -6 39
-12 5 -15 2 -10 -10z"/>
<path d="M17010 11485 c0 -8 5 -15 10 -15 6 0 10 7 10 15 0 8 -4 15 -10 15 -5
0 -10 -7 -10 -15z"/>
<path d="M17041 11484 c0 -11 3 -14 6 -6 3 7 2 16 -1 19 -3 4 -6 -2 -5 -13z"/>
<path d="M17058 11443 c7 -3 16 -2 19 1 4 3 -2 6 -13 5 -11 0 -14 -3 -6 -6z"/>
<path d="M17215 11430 c-4 -6 -1 -17 5 -25 14 -17 60 -20 60 -5 0 6 -7 10 -15
10 -9 0 -18 7 -21 15 -7 17 -20 19 -29 5z"/>
<path d="M17420 11430 c0 -5 5 -10 10 -10 6 0 10 5 10 10 0 6 -4 10 -10 10 -5
0 -10 -4 -10 -10z"/>
<path d="M17480 11410 c0 -5 5 -10 10 -10 6 0 10 5 10 10 0 6 -4 10 -10 10 -5
0 -10 -4 -10 -10z"/>
<path d="M17150 11405 c0 -9 40 -45 49 -45 20 0 22 22 5 35 -18 14 -54 20 -54
10z"/>
<path d="M17432 11375 c-11 -12 -10 -15 3 -15 8 0 15 7 15 15 0 18 -2 18 -18
0z"/>
<path d="M17239 11364 c-9 -11 -6 -14 19 -14 17 0 37 -3 46 -6 9 -3 16 -2 16
3 0 5 -16 14 -35 20 -27 9 -37 8 -46 -3z"/>
<path d="M1680 25659 c0 -11 5 -17 10 -14 6 3 10 13 10 21 0 8 -4 14 -10 14
-5 0 -10 -9 -10 -21z"/>
<path d="M17768 25523 c7 -3 16 -2 19 1 4 3 -2 6 -13 5 -11 0 -14 -3 -6 -6z"/>
<path d="M1280 25185 c0 -13 4 -14 20 -5 11 6 20 13 20 15 0 3 -9 5 -20 5 -11
0 -20 -7 -20 -15z"/>
<path d="M840 24760 c0 -29 4 -40 15 -40 11 0 15 11 15 40 0 29 -4 40 -15 40
-11 0 -15 -11 -15 -40z"/>
<path d="M960 24779 c0 -11 5 -17 10 -14 6 3 10 13 10 21 0 8 -4 14 -10 14 -5
0 -10 -9 -10 -21z"/>
<path d="M18460 24665 c0 -8 5 -15 10 -15 6 0 10 7 10 15 0 8 -4 15 -10 15 -5
0 -10 -7 -10 -15z"/>
<path d="M18483 24520 c0 -25 2 -35 4 -22 2 12 2 32 0 45 -2 12 -4 2 -4 -23z"/>
<path d="M18533 24520 c0 -25 2 -35 4 -22 2 12 2 32 0 45 -2 12 -4 2 -4 -23z"/>
<path d="M342 24069 c2 -6 8 -10 13 -10 5 0 11 4 13 10 2 6 -4 11 -13 11 -9 0
-15 -5 -13 -11z"/>
<path d="M18988 23683 c6 -2 18 -2 25 0 6 3 1 5 -13 5 -14 0 -19 -2 -12 -5z"/>
<path d="M19186 23521 c-4 -7 -5 -15 -2 -18 9 -9 19 4 14 18 -4 11 -6 11 -12
0z"/>
<path d="M8118 20343 c6 -2 18 -2 25 0 6 3 1 5 -13 5 -14 0 -19 -2 -12 -5z"/>
<path d="M7620 20160 c-8 -5 -12 -11 -10 -14 3 -2 14 2 24 10 22 15 10 19 -14
4z"/>
<path d="M7576 20014 c-5 -14 -4 -15 9 -4 17 14 19 20 6 20 -5 0 -12 -7 -15
-16z"/>
<path d="M10310 19993 c0 -12 38 -48 44 -42 3 2 -6 15 -20 28 -13 13 -24 19
-24 14z"/>
<path d="M10183 19923 c9 -9 19 -14 23 -11 10 10 -6 28 -24 28 -15 0 -15 -1 1
-17z"/>
<path d="M10256 19894 c-10 -27 -7 -44 9 -44 8 0 15 -7 15 -15 0 -8 5 -15 10
-15 6 0 10 4 10 9 0 6 -4 13 -10 16 -5 3 -10 19 -10 36 0 31 -14 39 -24 13z"/>
<path d="M7258 19833 c6 -2 18 -2 25 0 6 3 1 5 -13 5 -14 0 -19 -2 -12 -5z"/>
<path d="M10826 19825 c4 -8 11 -15 16 -15 6 0 5 6 -2 15 -7 8 -14 15 -16 15
-2 0 -1 -7 2 -15z"/>
<path d="M10446 19811 c-3 -5 1 -12 10 -15 27 -11 37 -7 24 9 -14 17 -26 19
-34 6z"/>
<path d="M10870 19783 c0 -15 18 -35 27 -32 5 2 1 12 -9 22 -10 9 -18 14 -18
10z"/>
<path d="M10958 19698 c12 -12 25 -19 28 -15 4 4 -1 14 -12 22 -29 22 -41 18
-16 -7z"/>
<path d="M11016 19635 c4 -8 8 -15 10 -15 2 0 4 7 4 15 0 8 -4 15 -10 15 -5 0
-7 -7 -4 -15z"/>
<path d="M10831 19574 c0 -11 3 -14 6 -6 3 7 2 16 -1 19 -3 4 -6 -2 -5 -13z"/>
<path d="M11089 19547 c18 -27 35 -46 38 -43 6 6 -29 57 -53 77 -10 8 -3 -8
15 -34z"/>
<path d="M11160 19421 c0 -6 4 -11 9 -11 5 0 12 -11 15 -25 4 -14 11 -25 16
-25 6 0 4 13 -5 29 -16 32 -35 49 -35 32z"/>
<path d="M6645 19410 c-3 -5 -2 -10 4 -10 5 0 13 5 16 10 3 6 2 10 -4 10 -5 0
-13 -4 -16 -10z"/>
<path d="M6605 19370 c-3 -5 -1 -10 4 -10 6 0 11 5 11 10 0 6 -2 10 -4 10 -3
0 -8 -4 -11 -10z"/>
<path d="M6560 19345 c-11 -13 -10 -14 4 -9 9 3 16 10 16 15 0 13 -6 11 -20
-6z"/>
<path d="M11210 19333 c0 -26 20 -73 31 -73 9 0 -4 50 -20 77 -10 17 -10 16
-11 -4z"/>
<path d="M12330 17650 c20 -13 33 -13 25 0 -3 6 -14 10 -23 10 -15 0 -15 -2
-2 -10z"/>
<path d="M12353 17288 c-15 -19 -23 -58 -12 -58 5 0 9 8 9 18 0 10 5 23 12 30
6 6 9 14 6 17 -3 3 -10 0 -15 -7z"/>
<path d="M12535 17040 c-3 -5 -1 -10 4 -10 6 0 11 5 11 10 0 6 -2 10 -4 10 -3
0 -8 -4 -11 -10z"/>
<path d="M13075 16756 c11 -8 24 -12 28 -9 11 7 -12 23 -32 23 -11 0 -9 -4 4
-14z"/>
<path d="M13155 16700 c3 -5 8 -10 11 -10 2 0 4 5 4 10 0 6 -5 10 -11 10 -5 0
-7 -4 -4 -10z"/>
<path d="M12880 16350 c0 -5 5 -10 10 -10 6 0 10 5 10 10 0 6 -4 10 -10 10 -5
0 -10 -4 -10 -10z"/>
<path d="M15651 16245 c45 -36 59 -42 59 -26 0 9 -82 61 -96 61 -4 0 13 -16
37 -35z"/>
<path d="M15350 16201 c0 -5 5 -13 10 -16 6 -3 10 -2 10 4 0 5 -4 13 -10 16
-5 3 -10 2 -10 -4z"/>
<path d="M14510 16169 c0 -5 5 -7 10 -4 6 3 10 8 10 11 0 2 -4 4 -10 4 -5 0
-10 -5 -10 -11z"/>
<path d="M15720 16170 c20 -13 43 -13 35 0 -3 6 -16 10 -28 10 -18 0 -19 -2
-7 -10z"/>
<path d="M15799 16166 c17 -20 74 -40 68 -23 -2 6 -13 13 -25 15 -12 2 -22 8
-22 13 0 5 -7 9 -16 9 -13 0 -14 -3 -5 -14z"/>
<path d="M15440 16150 c0 -5 5 -10 10 -10 6 0 10 5 10 10 0 6 -4 10 -10 10 -5
0 -10 -4 -10 -10z"/>
<path d="M14381 16114 c0 -11 3 -14 6 -6 3 7 2 16 -1 19 -3 4 -6 -2 -5 -13z"/>
<path d="M13461 16046 c-8 -9 -12 -17 -10 -19 45 -26 49 -27 49 -14 0 7 -6 21
-13 31 -12 16 -14 16 -26 2z"/>
<path d="M14210 16015 c-14 -16 -10 -18 14 -9 9 3 16 10 16 15 0 14 -16 11
-30 -6z"/>
<path d="M13596 16005 c-3 -8 -1 -15 4 -15 6 0 10 7 10 15 0 8 -2 15 -4 15 -2
0 -6 -7 -10 -15z"/>
<path d="M13865 15949 c-10 -15 1 -23 20 -15 9 3 13 10 10 16 -8 13 -22 13
-30 -1z"/>
<path d="M13925 15920 c3 -5 11 -10 16 -10 6 0 7 5 4 10 -3 6 -11 10 -16 10
-6 0 -7 -4 -4 -10z"/>
<path d="M5900 15744 c0 -8 48 -46 77 -61 39 -20 25 2 -21 35 -44 32 -56 37
-56 26z"/>
<path d="M6080 15738 c0 -10 32 -68 40 -73 5 -3 11 -1 15 5 3 5 1 10 -4 10 -6
0 -11 6 -11 13 0 8 -9 22 -20 32 -11 10 -20 16 -20 13z"/>
<path d="M6186 15659 c12 -13 20 -16 22 -9 3 7 -2 16 -9 21 -25 16 -32 9 -13
-12z"/>
<path d="M6230 15611 c0 -5 5 -13 10 -16 6 -3 10 -2 10 4 0 5 -4 13 -10 16 -5
3 -10 2 -10 -4z"/>
<path d="M6274 15569 c-3 -6 -1 -16 5 -22 8 -8 11 -5 11 11 0 24 -5 28 -16 11z"/>
<path d="M2 14145 c0 -16 2 -22 5 -12 2 9 2 23 0 30 -3 6 -5 -1 -5 -18z"/>
<path d="M3 13960 c0 -25 2 -35 4 -22 2 12 2 32 0 45 -2 12 -4 2 -4 -23z"/>
<path d="M1 13884 c0 -11 3 -14 6 -6 3 7 2 16 -1 19 -3 4 -6 -2 -5 -13z"/>
<path d="M0 13682 c0 -23 4 -42 9 -42 9 0 5 69 -4 79 -3 2 -5 -14 -5 -37z"/>
<path d="M0 13601 c0 -25 6 -27 13 -6 4 8 2 17 -3 20 -6 4 -10 -3 -10 -14z"/>
<path d="M6815 11763 c11 -3 23 -10 27 -16 4 -6 10 -8 15 -4 10 11 -17 27 -42
26 l-20 -1 20 -5z"/>
<path d="M6720 11690 c0 -5 5 -10 11 -10 5 0 7 5 4 10 -3 6 -8 10 -11 10 -2 0
-4 -4 -4 -10z"/>
<path d="M6720 11650 c0 -11 5 -20 10 -20 6 0 10 9 10 20 0 11 -4 20 -10 20
-5 0 -10 -9 -10 -20z"/>
<path d="M6666 11581 c-28 -6 -50 -31 -27 -31 6 0 11 4 11 9 0 6 17 11 38 13
20 2 30 6 22 9 -8 3 -28 3 -44 0z"/>
<path d="M6665 11550 c-3 -5 1 -10 9 -10 9 0 16 5 16 10 0 6 -4 10 -9 10 -6 0
-13 -4 -16 -10z"/>
<path d="M6248 11413 c7 -3 16 -2 19 1 4 3 -2 6 -13 5 -11 0 -14 -3 -6 -6z"/>
<path d="M5970 11300 l-25 -8 28 -1 c15 -1 27 4 27 9 0 6 -1 10 -2 9 -2 -1
-14 -5 -28 -9z"/>
<path d="M5401 11084 c0 -11 3 -14 6 -6 3 7 2 16 -1 19 -3 4 -6 -2 -5 -13z"/>
<path d="M5006 11024 c-8 -22 1 -31 16 -16 9 9 9 15 1 23 -7 7 -12 5 -17 -7z"/>
<path d="M4270 10795 c0 -9 5 -15 11 -13 6 2 11 8 11 13 0 5 -5 11 -11 13 -6
2 -11 -4 -11 -13z"/>
<path d="M2296 10782 c-9 -15 0 -96 14 -122 16 -31 33 -25 27 9 -5 23 -2 30
13 34 29 8 24 34 -9 52 -16 8 -31 20 -33 27 -3 9 -6 9 -12 0z"/>
<path d="M4034 10711 c3 -5 15 -7 26 -4 28 7 25 13 -6 13 -14 0 -23 -4 -20 -9z"/>
<path d="M4115 10711 c-6 -11 33 -26 43 -16 4 3 0 10 -8 15 -19 12 -27 12 -35
1z"/>
<path d="M3618 10563 c7 -3 16 -2 19 1 4 3 -2 6 -13 5 -11 0 -14 -3 -6 -6z"/>
<path d="M3630 10530 c0 -5 7 -10 16 -10 8 0 12 5 9 10 -3 6 -10 10 -16 10 -5
0 -9 -4 -9 -10z"/>
<path d="M2800 10364 c0 -8 5 -12 10 -9 6 3 10 10 10 16 0 5 -4 9 -10 9 -5 0
-10 -7 -10 -16z"/>
<path d="M3095 10360 c-11 -12 -13 -20 -6 -25 6 -3 14 0 17 8 3 9 13 13 25 10
10 -3 19 -1 19 5 0 19 -39 20 -55 2z"/>
<path d="M2385 10330 c-3 -5 1 -10 10 -10 9 0 13 5 10 10 -3 6 -8 10 -10 10
-2 0 -7 -4 -10 -10z"/>
<path d="M2845 10300 c-3 -5 3 -10 15 -10 12 0 18 5 15 10 -3 6 -10 10 -15 10
-5 0 -12 -4 -15 -10z"/>
<path d="M2780 10271 c0 -6 5 -13 10 -16 6 -3 10 1 10 9 0 9 -4 16 -10 16 -5
0 -10 -4 -10 -9z"/>
<path d="M321 10254 c0 -11 3 -14 6 -6 3 7 2 16 -1 19 -3 4 -6 -2 -5 -13z"/>
<path d="M2628 10243 c7 -3 16 -2 19 1 4 3 -2 6 -13 5 -11 0 -14 -3 -6 -6z"/>
<path d="M2698 10243 c6 -2 18 -2 25 0 6 3 1 5 -13 5 -14 0 -19 -2 -12 -5z"/>
<path d="M318 10190 c-3 -16 -1 -35 4 -42 6 -10 8 -10 8 0 0 16 18 15 36 -3 9
-8 21 -15 27 -15 8 0 9 3 1 8 -6 4 -13 15 -17 24 -4 11 -13 15 -28 11 -20 -5
-21 -3 -15 20 3 15 2 27 -3 27 -5 0 -11 -13 -13 -30z"/>
<path d="M2316 10195 c4 -8 11 -15 16 -15 6 0 5 6 -2 15 -7 8 -14 15 -16 15
-2 0 -1 -7 2 -15z"/>
<path d="M1958 10163 c7 -3 16 -2 19 1 4 3 -2 6 -13 5 -11 0 -14 -3 -6 -6z"/>
<path d="M230 10145 c-7 -9 -8 -15 -2 -15 5 0 12 7 16 15 3 8 4 15 2 15 -2 0
-9 -7 -16 -15z"/>
<path d="M2298 10153 c7 -3 16 -2 19 1 4 3 -2 6 -13 5 -11 0 -14 -3 -6 -6z"/>
<path d="M2045 10140 c-3 -5 3 -10 14 -10 12 0 21 5 21 10 0 6 -6 10 -14 10
-8 0 -18 -4 -21 -10z"/>
<path d="M1795 10110 c3 -5 8 -10 11 -10 2 0 4 5 4 10 0 6 -5 10 -11 10 -5 0
-7 -4 -4 -10z"/>
<path d="M103 10080 c11 -29 27 -41 27 -19 0 16 -20 49 -29 49 -5 0 -4 -13 2
-30z"/>
<path d="M1190 10100 c0 -6 7 -10 15 -10 8 0 15 2 15 4 0 2 -7 6 -15 10 -8 3
-15 1 -15 -4z"/>
<path d="M1520 10095 c0 -13 4 -14 20 -5 12 6 30 8 40 5 12 -4 20 -2 20 4 0 6
-18 11 -40 11 -29 0 -40 -4 -40 -15z"/>
<path d="M1475 10090 c-3 -5 3 -10 14 -10 12 0 21 5 21 10 0 6 -6 10 -14 10
-8 0 -18 -4 -21 -10z"/>
<path d="M370 10074 c0 -9 5 -14 12 -12 18 6 21 28 4 28 -9 0 -16 -7 -16 -16z"/>
<path d="M920 10079 c0 -5 11 -9 25 -9 14 0 25 2 25 4 0 2 -11 6 -25 8 -14 3
-25 1 -25 -3z"/>
<path d="M1420 10079 c14 -6 33 -15 42 -20 22 -11 58 -12 58 0 0 4 -19 11 -43
14 -24 3 -52 9 -62 12 -11 3 -9 1 5 -6z"/>
<path d="M750 10070 c0 -5 4 -10 9 -10 6 0 13 5 16 10 3 6 -1 10 -9 10 -9 0
-16 -4 -16 -10z"/>
<path d="M520 10050 c0 -5 9 -10 20 -10 11 0 20 5 20 10 0 6 -9 10 -20 10 -11
0 -20 -4 -20 -10z"/>
<path d="M590 10035 c0 -8 5 -15 10 -15 6 0 10 7 10 15 0 8 -4 15 -10 15 -5 0
-10 -7 -10 -15z"/>
<path d="M770 10041 c0 -5 9 -11 19 -14 14 -3 18 -1 14 9 -6 15 -33 19 -33 5z"/>
<path d="M560 10019 c0 -8 -13 -9 -39 -5 -48 7 -59 -6 -29 -33 27 -26 29 -26
56 -1 20 19 30 50 17 50 -3 0 -5 -5 -5 -11z m-20 -29 c0 -5 -9 -10 -20 -10
-11 0 -20 5 -20 10 0 6 9 10 20 10 11 0 20 -4 20 -10z"/>
<path d="M840 10000 c0 -11 4 -20 9 -20 13 0 32 26 24 33 -13 14 -33 6 -33
-13z"/>
</g>
</svg>
